<?xml version="1.0" encoding="UTF-8"?>
<svg version="1.1" xmlns="http://www.w3.org/2000/svg" width="500" height="500">
<path d="M0 0 C165 0 330 0 500 0 C500 165 500 330 500 500 C335 500 170 500 0 500 C0 335 0 170 0 0 Z " fill="rgb(91 63 255)" transform="translate(0,0)"/>
<path d="M0 0 C2.64 0 5.28 0 8 0 C11.94942945 16.90355804 13.1108952 34.09684978 13.57080078 51.41625977 C13.74384979 56.61712418 14.43916171 61.41006234 15.54101562 66.49072266 C16.31859953 70.74179041 16.39002116 75.00068243 16.5 79.3125 C16.64404846 84.88378617 16.99786093 90.23585376 17.98413086 95.7277832 C19.29941539 104.09852923 19.43742568 112.41304257 19.59765625 120.8671875 C19.63638532 122.55821687 19.67598837 124.24922643 19.71641541 125.94021606 C19.82014883 130.35297216 19.91456726 134.76587117 20.00616455 139.17889404 C20.15414238 146.26082765 20.3138445 153.34248542 20.47863579 160.42404556 C20.53409858 162.88279928 20.58389807 165.34162013 20.6330719 167.80050659 C20.66673108 169.31476253 20.70057061 170.82901448 20.73461914 172.34326172 C20.7618959 173.6564035 20.78917267 174.96954529 20.817276 176.32247925 C20.94268351 179.98723757 20.94268351 179.98723757 21.5057373 183.53683472 C22.01278848 187.08960544 22.1451455 190.48006895 22.17358398 194.06738281 C22.180271 194.73704575 22.18695801 195.40670868 22.19384766 196.09666443 C22.2078152 197.54247537 22.21973503 198.98830729 22.22979546 200.4341507 C22.24644871 202.75254095 22.26970705 205.07078448 22.29469299 207.38909912 C22.36469639 213.97888569 22.42448586 220.56874145 22.47680664 227.15869141 C20.11158274 259.44926627 20.11158274 259.44926627 26 288 C26.29970271 289.66171801 26.56429181 291.32981403 26.8125 293 C27.99072349 299.77918141 30.55929128 305.27294422 33.75 311.3125 C35 314 35 314 35 318 C35.66 318 36.32 318 37 318 C37 318.99 37 319.98 37 321 C37.66 321 38.32 321 39 321 C40.98 326.61 42.96 332.22 45 338 C42.66666667 340.33333333 40.33333333 342.66666667 38 345 C37.01 345 36.02 345 35 345 C35 345.66 35 346.32 35 347 C34.07316406 347.33773438 33.14632813 347.67546875 32.19140625 348.0234375 C30.99386719 348.46945312 29.79632813 348.91546875 28.5625 349.375 C26.77005859 350.03628906 26.77005859 350.03628906 24.94140625 350.7109375 C21.89803102 351.67085236 21.89803102 351.67085236 21 354 C19.03125 354.74609375 19.03125 354.74609375 16.5 355.4375 C12.42347252 356.5798555 8.46042207 357.86793057 4.49609375 359.3515625 C-2.87717631 361.26699729 -10.54201704 361.14226167 -18.10475159 361.12025452 C-19.73337306 361.12153615 -19.73337306 361.12153615 -21.39489597 361.12284368 C-25.01531553 361.12448441 -28.63568826 361.11900022 -32.25610352 361.11352539 C-34.85838317 361.11324319 -37.4606629 361.1134019 -40.0629425 361.1139679 C-45.65639794 361.11449087 -51.24984166 361.11136778 -56.84329414 361.10573006 C-64.93037055 361.09758431 -73.01744132 361.09499669 -81.10452139 361.09374207 C-94.22699207 361.09155637 -107.34945652 361.08490938 -120.47192383 361.07543945 C-133.21508757 361.06625284 -145.95824962 361.05917812 -158.70141602 361.05493164 C-159.48761834 361.05466892 -160.27382066 361.05440619 -161.08384729 361.05413551 C-165.02820638 361.05283042 -168.97256549 361.05156672 -172.9169246 361.05032361 C-205.6112876 361.03996603 -238.30564297 361.02236085 -271 361 C-271 360.34 -271 359.68 -271 359 C-271.59425781 359.02320313 -272.18851562 359.04640625 -272.80078125 359.0703125 C-281.95484524 359.26962338 -290.79813868 358.27923199 -299 354 C-299.33 353.34 -299.66 352.68 -300 352 C-301.84020225 351.54362984 -303.69868324 351.16007033 -305.5625 350.8125 C-311.07981173 349.52273882 -314.02359153 347.7670188 -318 343.83203125 C-320.22742105 341.79167876 -322.50989285 340.38102153 -325.125 338.875 C-329.14789238 336.55314545 -332.62443108 334.1979074 -336 331 C-336 330.34 -336 329.68 -336 329 C-336.99 328.67 -337.98 328.34 -339 328 C-340.88118635 325.82760833 -342.63995848 323.65868978 -344.375 321.375 C-344.84421875 320.77042969 -345.3134375 320.16585938 -345.796875 319.54296875 C-347.21403535 317.70692399 -348.61075688 315.85724009 -350 314 C-350.43731445 313.41959961 -350.87462891 312.83919922 -351.32519531 312.24121094 C-368.59957059 288.78136693 -371.50010241 261.71285943 -371.1875 233.5 C-371.17241893 231.11589391 -371.15873661 228.73177855 -371.14648438 226.34765625 C-371.1137666 220.56489833 -371.06384137 214.78249379 -371 209 C-369.88254395 208.99589111 -368.76508789 208.99178223 -367.61376953 208.98754883 C-363.37505042 208.96539284 -359.13721263 208.91074283 -354.89892578 208.84741211 C-353.08195594 208.82454407 -351.26485942 208.80991158 -349.44775391 208.80444336 C-335.6854311 208.7549386 -314.82526573 208.3598359 -304.07421875 198.17578125 C-303.61660156 197.56089844 -303.15898437 196.94601562 -302.6875 196.3125 C-301.26171875 194.42578125 -301.26171875 194.42578125 -300 193 C-299.34 193 -298.68 193 -298 193 C-297.7525 192.443125 -297.505 191.88625 -297.25 191.3125 C-296 189 -296 189 -294.078125 186.71875 C-284.13864279 173.71521689 -280.88099155 150.04072463 -279.5 133.875 C-279 130 -279 130 -277.6015625 127.328125 C-275.63585163 123.24328193 -274.76395317 119.298431 -273.875 114.875 C-273.70613281 114.09640625 -273.53726563 113.3178125 -273.36328125 112.515625 C-270.94457279 100.82202662 -270.78105232 88.90016598 -270.39453125 77.00390625 C-270.07798814 68.12978399 -270.07798814 68.12978399 -269.4921875 63.84765625 C-269.01573615 60.12301673 -268.82957596 56.49208523 -268.70922852 52.74438477 C-268.46636075 45.37176405 -268.04477937 38.61572181 -265.74609375 31.5546875 C-264.88490307 28.60589847 -264.50859783 25.73436279 -264.125 22.6875 C-263.10391937 15.36388721 -260.6933756 8.85679971 -258 2 C-252.3435275 1.14619283 -249.40380242 1.97027246 -244.6875 5.25 C-239.37472682 9.39278573 -235.00596189 14.14102409 -230.5703125 19.171875 C-227.82161654 22.19627603 -224.9062609 24.79103851 -221.78125 27.41015625 C-219.37974489 29.55360489 -217.35543488 31.93087069 -215.32421875 34.421875 C-214.00341202 36.05718997 -214.00341202 36.05718997 -212.33203125 37.578125 C-211 39 -211 39 -211 41 C-210.44957031 41.06445312 -209.89914063 41.12890625 -209.33203125 41.1953125 C-206.0138 42.34029682 -204.18819041 44.43443934 -201.6875 46.875 C-192.829398 55.21954631 -184.18064229 56.18869951 -172.375 56.125 C-171.28832031 56.13080078 -171.28832031 56.13080078 -170.1796875 56.13671875 C-169.11234375 56.13478516 -169.11234375 56.13478516 -168.0234375 56.1328125 C-167.39356934 56.13168457 -166.76370117 56.13055664 -166.11474609 56.12939453 C-163.3695668 55.96142581 -160.71248751 55.45222102 -158 55 C-143.06251414 53.46938342 -127.99244623 53.88733588 -113 53.9375 C-110.37500085 53.94252563 -107.75000078 53.94708665 -105.125 53.95117188 C-98.74997935 53.96209188 -92.37499414 53.97874552 -86 54 C-86 54.66 -86 55.32 -86 56 C-81.91065419 56.02500541 -77.82133895 56.04300222 -73.73193359 56.05493164 C-72.34520694 56.05991293 -70.95848541 56.06670039 -69.57177734 56.07543945 C-61.66164008 56.12398542 -53.85497801 56.03835551 -46 55 C-46 54.34 -46 53.68 -46 53 C-44.01739574 51.31267723 -42.0167658 49.64633943 -40 48 C-39.67 47.34 -39.34 46.68 -39 46 C-38.34 46 -37.68 46 -37 46 C-36.773125 45.443125 -36.54625 44.88625 -36.3125 44.3125 C-34.99188821 41.9857078 -33.46808795 40.50434512 -31.55078125 38.671875 C-28.71545144 35.61514664 -26.39865286 32.15861855 -23.98046875 28.76953125 C-22.31456343 26.43989245 -20.61277467 24.15098309 -18.875 21.875 C-16.79807 19.14484202 -14.94752868 16.34276749 -13.125 13.4375 C-10.1192862 8.85736469 -6.49493273 5.14847765 -2 2 C-1.34 2 -0.68 2 0 2 C0 1.34 0 0.68 0 0 Z " fill="#FBFBFB" transform="translate(389,130)"/>
<path d="M0 0 C165 0 330 0 500 0 C500 165 500 330 500 500 C335 500 170 500 0 500 C0 335 0 170 0 0 Z M87 15 C85.92638246 15.50074555 85.92638246 15.50074555 84.83107567 16.01160717 C83.16627722 16.81665515 81.54741067 17.71514081 79.9375 18.625 C78.91527344 19.19476563 77.89304688 19.76453125 76.83984375 20.3515625 C74.98425858 21.42866971 73.13858694 22.52308996 71.3046875 23.63671875 C68.93711949 25.03719542 66.57511767 26.04352772 64 27 C64 27.66 64 28.32 64 29 C63.43796875 29.2578125 62.8759375 29.515625 62.296875 29.78125 C59.73295421 31.14169777 57.54773635 32.72788962 55.25 34.5 C54.45078125 35.1084375 53.6515625 35.716875 52.828125 36.34375 C52.22484375 36.8903125 51.6215625 37.436875 51 38 C51 38.66 51 39.32 51 40 C50.01 40.33 49.02 40.66 48 41 C48 41.66 48 42.32 48 43 C47.34 43 46.68 43 46 43 C44.04018712 45.25407908 42.19599236 47.5132561 40.375 49.875 C39.6015625 50.85146484 39.6015625 50.85146484 38.8125 51.84765625 C35.97535097 55.06506674 35.97535097 55.06506674 35 59 C34.34 59 33.68 59 33 59 C32.61908203 59.97839844 32.61908203 59.97839844 32.23046875 60.9765625 C30.34112547 65.7742207 28.30692904 70.38614193 26 75 C26 75.66 26 76.32 26 77 C25.34 77 24.68 77 24 77 C21.49440835 83.29063435 19.46482152 89.62744509 17.8125 96.1875 C17.56258301 97.16589844 17.56258301 97.16589844 17.30761719 98.1640625 C15.24176197 106.59716348 14.8502397 114.68248676 14.84609985 123.31652832 C14.8417176 124.43757414 14.83733535 125.55861997 14.8328203 126.71363688 C14.8194928 130.46078573 14.81326693 134.2079111 14.80712891 137.95507812 C14.79922285 140.6463488 14.79095767 143.33761656 14.78234863 146.02888489 C14.75789652 154.09988805 14.74320513 162.1708972 14.73028857 170.24192595 C14.72657044 172.52637187 14.7225977 174.8108172 14.7185359 177.09526253 C14.69328583 191.31767036 14.67125861 205.5400793 14.65880775 219.76250458 C14.65587862 223.05244449 14.65291688 226.34238438 14.64990234 229.63232422 C14.64915629 230.44990505 14.64841024 231.26748588 14.64764158 232.10984188 C14.63501876 245.32046582 14.60183347 258.53095423 14.56010051 271.74151498 C14.51749038 285.34271422 14.4940906 298.94384448 14.48888719 312.54511023 C14.48549387 320.16607611 14.47398778 327.7868305 14.44078445 335.4077301 C14.41251868 341.90558771 14.40189875 348.40319043 14.41297992 354.90110469 C14.41810072 358.20564049 14.41288479 361.50922042 14.39051437 364.8137455 C14.24424449 387.68964732 15.27494394 418.73992231 31 437 C32.10563182 438.56784369 33.18880128 440.15174694 34.25 441.75 C34.72953125 442.46671875 35.2090625 443.1834375 35.703125 443.921875 C37 446 37 446 38.02734375 448.11328125 C39.48956921 450.9496463 41.70134865 452.80826267 44 455 C46.51090797 457.51090797 49.0202539 460.02076025 51.5 462.5625 C53.8904578 464.89319636 56.38200997 466.93316576 59 469 C59.8353125 469.86625 59.8353125 469.86625 60.6875 470.75 C61.93929598 472.22988506 61.93929598 472.22988506 64 472 C64 472.66 64 473.32 64 474 C66.14176336 475.59970447 66.14176336 475.59970447 68.8125 477.125 C70.15248047 477.93324219 70.15248047 477.93324219 71.51953125 478.7578125 C73.98471897 480.22388837 73.98471897 480.22388837 77 480 C77 480.66 77 481.32 77 482 C82.26300249 485.12677246 87.05855782 487.51463946 93 489 C93.33 489.33 93.66 489.66 94 490 C96.1575574 490.51864361 98.32670123 490.98937322 100.5 491.4375 C107.89652817 492.97308357 107.89652817 492.97308357 109.9558143 493.50877178 C116.09477523 495.05948772 121.90792898 495.27681336 128.21864319 495.24050903 C129.31664149 495.24221788 130.4146398 495.24392673 131.54591078 495.24568737 C135.20783928 495.24896929 138.86958264 495.23799983 142.53149414 495.22705078 C145.16333003 495.22648639 147.79516624 495.22680378 150.42700195 495.22793579 C156.0843146 495.2289818 161.74158092 495.22273498 167.39888191 495.21146011 C175.57826753 495.19516946 183.75763088 495.18999347 191.93703096 495.18748413 C205.20925402 495.18311261 218.48145243 495.16981828 231.75366211 495.15087891 C244.64233273 495.13250603 257.53099665 495.11835642 270.41967773 495.10986328 C271.21484104 495.10933783 272.01000435 495.10881239 272.82926352 495.10827102 C276.81857479 495.10566084 280.80788611 495.10313345 284.79719746 495.10064721 C317.86481625 495.07993163 350.93240482 495.04472093 384 495 C384 494.34 384 493.68 384 493 C384.77085937 492.93941406 385.54171875 492.87882812 386.3359375 492.81640625 C387.33882813 492.73261719 388.34171875 492.64882813 389.375 492.5625 C390.37273437 492.48128906 391.37046875 492.40007812 392.3984375 492.31640625 C394.97927613 492.15034374 394.97927613 492.15034374 397 491 C399.03583123 490.61369961 401.0787318 490.26403216 403.125 489.9375 C404.22070312 489.76089844 405.31640625 489.58429688 406.4453125 489.40234375 C407.28835938 489.26957031 408.13140625 489.13679688 409 489 C409 488.34 409 487.68 409 487 C409.886875 486.87625 410.77375 486.7525 411.6875 486.625 C414.70387502 486.05587264 417.20326054 485.23385564 420 484 C420 483.34 420 482.68 420 482 C421.98 481.67 423.96 481.34 426 481 C426.33 480.01 426.66 479.02 427 478 C429.50390625 476.24609375 429.50390625 476.24609375 432.5625 474.4375 C434.40742759 473.34464481 436.22985153 472.21023331 438 471 C438 470.34 438 469.68 438 469 C438.5775 468.9175 439.155 468.835 439.75 468.75 C442.6539336 467.78202213 444.03740604 466.31305716 446 464 C446 463.34 446 462.68 446 462 C447.3921875 461.690625 447.3921875 461.690625 448.8125 461.375 C452.91253574 459.60635713 453.22739176 458.00763602 455 454 C457.28602542 450.73317159 459.10541492 448.29819503 463 447 C464.09950616 445.07363186 464.09950616 445.07363186 464.9375 442.75 C466.02413367 439.94639104 466.99150867 438.01006 468.9453125 435.6953125 C471.45143704 432.40781073 472.66556488 429.00413823 473.9375 425.125 C474.31600098 424.00496582 474.31600098 424.00496582 474.70214844 422.86230469 C475.22123947 421.32326817 475.73637634 419.78289236 476.24755859 418.24121094 C476.94849321 416.15341737 477.67982045 414.07986809 478.42578125 412.0078125 C478.86277344 410.76773437 479.29976563 409.52765625 479.75 408.25 C480.13671875 407.16203125 480.5234375 406.0740625 480.921875 404.953125 C483.77944824 395.498607 484.29598796 385.62811112 484.26069641 375.81835938 C484.26452196 374.66486244 484.26834751 373.51136551 484.27228898 372.32291412 C484.28252501 368.49647837 484.27864482 364.67019531 484.2746582 360.84375 C484.27791967 358.08463107 484.28413077 355.32552037 484.29014587 352.56640625 C484.30283892 345.87350315 484.30469343 339.18064027 484.30234561 332.48772717 C484.30055664 327.04430382 484.30232444 321.6008926 484.30657005 316.1574707 C484.30746284 314.99176505 484.30746284 314.99176505 484.30837366 313.80250978 C484.3095855 312.22337023 484.31079964 310.64423068 484.31201603 309.06509113 C484.32287026 294.28571839 484.32073882 279.50636853 484.31463119 264.72699451 C484.3094609 251.22800077 484.32072421 237.72907916 484.33972941 224.23009968 C484.35913326 210.34063611 484.36735953 196.45120663 484.36360615 182.56172943 C484.36169836 174.77525964 484.36414065 166.98885126 484.37832069 159.20239258 C484.39026782 152.57555085 484.391602 145.94880839 484.37953053 139.32196522 C484.37366575 135.94606421 484.37412103 132.57049222 484.38453293 129.19458008 C484.39503587 125.52343429 484.38687078 121.85276959 484.3742218 118.18164062 C484.38159609 117.1311277 484.38897037 116.08061478 484.39656812 114.99826813 C484.33288336 106.15956626 483.06287359 97.2357706 479.375 89.125 C478 86 478 86 477.625 82.6875 C476.88968327 78.34913127 475.2373881 75.17366699 473.15625 71.33203125 C472 69 472 69 471.47265625 66.83203125 C470.84462523 64.39776227 469.37547555 63.28520765 467.58203125 61.60546875 C465.59290595 59.58687492 463.87981654 57.41253923 462.125 55.1875 C452.15491707 42.60443994 441.9760128 31.11439867 428 23 C427.37222656 22.55269531 426.74445313 22.10539062 426.09765625 21.64453125 C420.39556353 17.58943249 413.9602008 15.94092764 407.31640625 14.015625 C404 13 404 13 403 12 C401.33382885 11.95936168 399.66611905 11.957279 398 12 C398 11.34 398 10.68 398 10 C360.40229777 9.88544379 322.80462192 9.79739492 285.20678034 9.74467335 C280.76350431 9.73842015 276.32022864 9.73194851 271.87695312 9.7253418 C270.55014276 9.72337447 270.55014276 9.72337447 269.19652815 9.7213674 C254.89227618 9.69963737 240.58812515 9.66022916 226.28393297 9.61423602 C211.59597048 9.56740438 196.90806069 9.53969045 182.22002661 9.52955753 C173.16372154 9.52271224 164.1077018 9.5011274 155.0514846 9.46041767 C148.83315544 9.43389638 142.61497284 9.42602014 136.39659129 9.43249311 C132.81399006 9.43568151 129.23188584 9.43095002 125.64937401 9.40397263 C105.70175419 8.973739 105.70175419 8.973739 87 15 Z " fill="#FBFAFD" transform="translate(0,0)"/>
<path d="M0 0 C0.99 0.66 1.98 1.32 3 2 C3 2.66 3 3.32 3 4 C3.66 4 4.32 4 5 4 C5 4.66 5 5.32 5 6 C5.5969165 6.11698242 6.19383301 6.23396484 6.80883789 6.35449219 C10.31144976 7.38634798 12.73919366 9.88782554 15.4375 12.25 C15.99759766 12.72824219 16.55769531 13.20648438 17.13476562 13.69921875 C19.72058799 15.92598293 22.18815201 18.18900081 24.59765625 20.609375 C26.9422255 23.03668389 26.9422255 23.03668389 29.578125 25.01953125 C32.07137797 27.05836876 33.81570246 29.12083596 35.75 31.6875 C39.82078732 36.87889731 44.19183459 41.49032808 49 46 C49.74765625 46.77214844 50.4953125 47.54429687 51.265625 48.33984375 C56.12884321 52.92125296 59.57228872 54.5210913 66.3125 54.625 C72.09271688 54.30772263 77.72136975 53.48245696 83.421875 52.51171875 C107.77983443 49.02821145 133.27545433 50.46297299 157.73925781 52.28833008 C164.4309241 52.77718912 171.11202372 53.14050928 177.8203125 53.25 C178.50825897 53.2713501 179.19620544 53.2927002 179.90499878 53.31469727 C182.04630924 53.36502072 182.04630924 53.36502072 185 53 C185.66 52.01 186.32 51.02 187 50 C187.66 50 188.32 50 189 50 C189.33 49.01 189.66 48.02 190 47 C190.97915262 45.97957844 191.98149413 44.98114515 193 44 C193.91610438 42.7797007 194.80295996 41.53705802 195.6640625 40.27734375 C196.38722656 39.22256836 196.38722656 39.22256836 197.125 38.14648438 C197.8675 37.05303711 197.8675 37.05303711 198.625 35.9375 C199.12773437 35.20466797 199.63046875 34.47183594 200.1484375 33.71679688 C202.75281627 29.96499895 202.75281627 29.96499895 205 26 C205.66 26 206.32 26 207 26 C207.3403125 24.93652344 207.3403125 24.93652344 207.6875 23.8515625 C209.28578127 20.37910617 211.37444346 18.14557274 214 15.375 C216.58212523 12.63524503 218.91057174 10.13414239 221 7 C221.66 7 222.32 7 223 7 C223 6.34 223 5.68 223 5 C225.73819483 2.58431773 228.55581516 1.19849453 231.9375 -0.125 C232.77152344 -0.45757812 233.60554688 -0.79015625 234.46484375 -1.1328125 C240.52268476 -3.20498616 246.64182941 -3.68256831 253 -3 C256.4375 -1.25 256.4375 -1.25 259 1 C259.70125 1.5775 260.4025 2.155 261.125 2.75 C265.68133619 8.21760342 267.64509599 14.30063399 268.59375 21.25390625 C268.7119812 22.05929337 268.8302124 22.86468048 268.95202637 23.69447327 C270.62781691 35.71911251 271.50904256 47.84189595 272.5 59.9375 C272.90202497 64.78030971 273.30882739 69.62269642 273.71875 74.46484375 C273.81999176 75.67189972 273.92123352 76.87895569 274.02554321 78.12258911 C274.63362794 85.22379199 275.35116072 92.30300733 276.16116333 99.38386536 C277.96001078 115.14585633 278.86568043 130.88722238 279.53839111 146.73083496 C279.71313645 150.80477795 279.89929798 154.87821336 280.08444786 158.95169449 C280.2282963 162.11852662 280.36990408 165.28541065 280.5062561 168.45257568 C280.77123677 174.50877647 281.10610188 180.54973689 281.53442383 186.59667969 C282.1798841 196.25869953 282.1256661 205.91452997 282.09765625 215.59375 C282.09578584 217.52144331 282.09436489 219.4491371 282.09336853 221.37683105 C282.08959232 226.39407721 282.07980526 231.41129335 282.06866455 236.42852783 C282.05834376 241.57083734 282.0538483 246.71315182 282.04882812 251.85546875 C282.03817743 261.90365885 282.02116163 271.95182691 282 282 C282.66 282 283.32 282 284 282 C284.02578125 283.20914062 284.0515625 284.41828125 284.078125 285.6640625 C284.57522801 301.92667061 288.36341851 314.71906106 296 329 C300 336.72011662 300 336.72011662 300 339 C300.66 339 301.32 339 302 339 C302.6875 341.3125 302.6875 341.3125 303 344 C301.6875 345.8125 301.6875 345.8125 300 347 C299.34 347 298.68 347 298 347 C298 347.66 298 348.32 298 349 C295.6875 351.625 295.6875 351.625 293 354 C292.01 354 291.02 354 290 354 C289.67 354.99 289.34 355.98 289 357 C286.49571263 358.66952491 283.89148478 360.05919012 281.25 361.5 C278.70399292 362.86478689 278.70399292 362.86478689 278 366 C276.02 366.33 274.04 366.66 272 367 C272 367.66 272 368.32 272 369 C265.5 372 265.5 372 261 372 C261 372.66 261 373.32 261 374 C260.2265625 374.12117188 259.453125 374.24234375 258.65625 374.3671875 C251.55927077 375.50368257 251.55927077 375.50368257 244.5625 377.125 C241.51234389 377.87416115 239.11037431 378.19439839 236 378 C236 378.66 236 379.32 236 380 C202.25814833 380.09169965 168.51632785 380.16211171 134.7743791 380.20426132 C130.78431894 380.20926371 126.79425902 380.21444104 122.80419922 380.21972656 C121.61275345 380.22130043 121.61275345 380.22130043 120.39723808 380.22290608 C107.56225401 380.24027717 94.72734214 380.27179653 81.8924008 380.30861118 C68.70734336 380.34611263 55.52232353 380.36825524 42.33721495 380.37635398 C34.21144789 380.38182274 26.08588494 380.3990497 17.96018076 380.43166587 C12.37632746 380.45292763 6.79257856 380.4591739 1.20868778 380.45400551 C-2.00552521 380.45146166 -5.21931221 380.45739804 -8.4334774 380.4768219 C-20.62106749 380.54682296 -32.01483601 380.53193625 -43.74193573 376.95669174 C-47.04207801 375.89831006 -47.04207801 375.89831006 -50.73700714 375.49786758 C-54 375 -54 375 -57 373 C-57.886875 372.71125 -58.77375 372.4225 -59.6875 372.125 C-63.66827244 370.77303955 -67.28139967 368.94424281 -71 367 C-71 366.34 -71 365.68 -71 365 C-71.66 364.938125 -72.32 364.87625 -73 364.8125 C-77.1216675 363.69621505 -80.65750502 361.66238434 -84 359 C-84 358.34 -84 357.68 -84 357 C-84.8353125 356.9071875 -84.8353125 356.9071875 -85.6875 356.8125 C-88.98942866 355.6523629 -90.62907991 353.54440205 -93 351 C-93.825 350.175 -94.65 349.35 -95.5 348.5 C-96.325 347.675 -97.15 346.85 -98 346 C-98.845625 345.175 -99.69125 344.35 -100.5625 343.5 C-103 341 -103 341 -105.125 338.3125 C-106.96561073 335.80846331 -106.96561073 335.80846331 -110 334 C-111.10546875 332.22265625 -111.10546875 332.22265625 -112.1875 330.0625 C-114.19397163 326.25691247 -116.49224585 322.96334206 -119.125 319.5625 C-122.88773155 314.47506147 -124.55871605 310.09030351 -126 304 C-126.66309435 301.79059138 -127.33004883 299.58233912 -128 297.375 C-132.27098927 281.99857404 -133.42957692 267.87428784 -133.28125 251.93725586 C-133.25008786 248.57198862 -133.24025899 245.20719437 -133.234375 241.84179688 C-133.19999707 232.20773671 -133.08340945 222.5855397 -132.546875 212.96484375 C-132.5086261 212.26057755 -132.4703772 211.55631134 -132.43096924 210.83070374 C-132.12771261 206.12771261 -132.12771261 206.12771261 -131 205 C-128.37711941 204.88887234 -125.77625348 204.83830226 -123.15234375 204.82421875 C-121.49673287 204.80096366 -119.84113396 204.77684429 -118.18554688 204.75195312 C-115.58610715 204.717281 -112.98709059 204.68776113 -110.38745117 204.67407227 C-91.25698747 204.98611811 -91.25698747 204.98611811 -74.25952148 197.75268555 C-72.27655193 195.59681656 -70.62403068 193.43390349 -69 191 C-68.49944092 190.40131104 -67.99888184 189.80262207 -67.4831543 189.18579102 C-65.77725974 186.67173769 -65.32222288 184.78978254 -64.7890625 181.80859375 C-64.59860352 180.79015381 -64.40814453 179.77171387 -64.21191406 178.72241211 C-63.9213916 177.09638062 -63.9213916 177.09638062 -63.625 175.4375 C-61.95976363 166.57569705 -60.07632848 157.86598062 -57.61181641 149.19116211 C-56.47128196 145.11148626 -55.77805975 141.24058955 -55.3347168 137.01123047 C-54.98250728 134.89489054 -54.34537475 133.1332367 -53.56640625 131.13671875 C-50.94475205 123.70471908 -50.68608945 115.61062798 -49.9375 107.8125 C-49.61760625 104.58940133 -49.29186929 101.36691322 -48.96484375 98.14453125 C-48.88656845 97.36132507 -48.80829315 96.5781189 -48.72764587 95.7711792 C-48.23680338 90.96139551 -47.62294156 86.19153583 -46.90625 81.41015625 C-46.11877783 76.12678071 -45.70452734 70.95931023 -45.5625 65.625 C-45.2672521 58.0423572 -44.22806851 50.8922392 -42.69140625 43.46875 C-42.11682858 40.58612306 -41.70539868 37.79753106 -41.4375 34.875 C-41.0340514 31.30159811 -40.2864355 28.3447323 -39 25 C-38.34 25 -37.68 25 -37 25 C-36.92652344 23.67935547 -36.92652344 23.67935547 -36.8515625 22.33203125 C-36.77679688 21.17058594 -36.70203125 20.00914062 -36.625 18.8125 C-36.55539063 17.66394531 -36.48578125 16.51539063 -36.4140625 15.33203125 C-36.02150347 12.17304206 -35.43731936 9.8281068 -34 7 C-33.34 6.67 -32.68 6.34 -32 6 C-30.86649466 3.98330173 -30.86649466 3.98330173 -30 2 C-29.34 2 -28.68 2 -28 2 C-28 1.34 -28 0.68 -28 0 C-18.01955052 -4.27733549 -10.23142528 -3.30437142 0 0 Z M241 15 C241 15.66 241 16.32 241 17 C240.319375 17.185625 239.63875 17.37125 238.9375 17.5625 C232.70694714 20.61149396 228.82122154 25.91903111 225.3671875 31.77734375 C223.15701636 35.37045054 220.62422779 38.7205646 218.12109375 42.11328125 C216.67846582 44.07663676 215.25457888 46.05387124 213.84765625 48.04296875 C213.15542969 49.01878906 212.46320313 49.99460938 211.75 51 C210.81414062 52.3303125 210.81414062 52.3303125 209.859375 53.6875 C208.07053911 55.91227069 206.27173785 57.31127452 204 59 C204 59.66 204 60.32 204 61 C203.34 61 202.68 61 202 61 C200.31267723 62.98260426 198.64633943 64.9832342 197 67 C196.34 67.33 195.68 67.66 195 68 C195 68.66 195 69.32 195 70 C186.46504986 71.12824155 177.96546452 71.11663729 169.375 71.0625 C167.97526203 71.05747197 166.5755223 71.05291138 165.17578125 71.04882812 C161.78380831 71.03713167 158.39192767 71.02074086 155 71 C155 70.34 155 69.68 155 69 C147.31771568 68.97438696 139.6354426 68.95702416 131.953125 68.94506836 C129.34634998 68.94007762 126.7395777 68.93328268 124.1328125 68.92456055 C100.48237886 68.63146439 100.48237886 68.63146439 77 71 C51.09964754 72.10050905 51.09964754 72.10050905 41.11328125 63.51953125 C39.23815057 61.70716645 37.36315166 59.8946653 35.48828125 58.08203125 C33.15727177 55.67913868 33.15727177 55.67913868 30 56 C29.89945313 55.39671875 29.79890625 54.7934375 29.6953125 54.171875 C28.86765785 51.58661666 28.00942435 50.87713964 25.875 49.25 C23.13415089 47.03387557 20.83196508 44.75977229 18.5625 42.0625 C15.61913163 38.59235429 12.43842688 35.7120334 8.96484375 32.78515625 C6.95489394 30.95901895 5.28510602 29.03406668 3.5625 26.9375 C0.01608309 22.80270028 -3.91282958 19.09518407 -9 17 C-11.70502488 16.80062184 -14.28063585 16.88562086 -17 17 C-20.31636386 26.2920761 -23.46933038 35.24511664 -24.578125 45.10546875 C-25 48 -25 48 -26.01171875 51.2421875 C-27.22374733 55.8507705 -27.41657979 60.19331351 -27.5625 64.9375 C-27.75202436 70.28853879 -28.04080848 75.51529671 -28.76586914 80.82641602 C-29.27257547 85.53048945 -29.29631873 90.27365235 -29.4375 95 C-30.71730659 130.91293997 -30.71730659 130.91293997 -36.50390625 141.83984375 C-38.46652538 145.98542829 -38.92993054 149.91870924 -39.5 154.4375 C-39.75293603 156.23729997 -40.00816236 158.03677949 -40.265625 159.8359375 C-40.39001953 160.71733398 -40.51441406 161.59873047 -40.64257812 162.50683594 C-42.00051006 171.97896771 -44.11849486 180.97667483 -47.3125 190 C-47.58416992 190.78963135 -47.85583984 191.5792627 -48.13574219 192.39282227 C-49.95951987 197.30166719 -52.18467317 200.80702693 -55.81713867 204.58984375 C-57.21422 205.94862201 -57.21422 205.94862201 -57 208 C-57.556875 208.20625 -58.11375 208.4125 -58.6875 208.625 C-61.24606657 209.92346573 -61.24606657 209.92346573 -62.9375 212.875 C-66.81631446 217.78020845 -73.22036204 218.52190887 -79 220 C-80.0664978 220.37402954 -80.0664978 220.37402954 -81.15454102 220.75561523 C-90.77106191 223.91193767 -100.67459258 223.56473435 -110.6875 223.6875 C-112.56447612 223.72073086 -114.44143031 223.75522568 -116.31835938 223.79101562 C-120.87878399 223.87525514 -125.43916465 223.94237269 -130 224 C-130.07695355 230.9701417 -130.12897298 237.9401713 -130.16479492 244.91064453 C-130.1797507 247.27494398 -130.20012268 249.63921634 -130.22631836 252.00341797 C-130.37046621 265.36111892 -130.27770494 277.99183533 -127 291 C-126.77691162 291.92474121 -126.55382324 292.84948242 -126.32397461 293.80224609 C-122.13922971 310.28134789 -112.46503493 325.68932092 -101.35546875 338.28515625 C-99 341 -99 341 -97 344 C-96.34 344 -95.68 344 -95 344 C-94.505 345.485 -94.505 345.485 -94 347 C-90.19079623 350.52310478 -85.93898887 353.59379693 -81.375 356.0625 C-78.58796847 357.66246255 -77.03030109 358.8821076 -74.8125 361.0625 C-70.91101567 364.60768439 -66.65817108 365.32402616 -61.57421875 366.26171875 C-59 367 -59 367 -57 370 C-48.52003262 374.11683064 -39.21239508 374.16990073 -30 374 C-30 374.66 -30 375.32 -30 376 C3.41075115 376.04582701 36.82149445 376.08104435 70.23227007 376.10213066 C74.18113257 376.10463192 78.12999501 376.10722058 82.07885742 376.10986328 C82.86496969 376.1103879 83.65108195 376.11091252 84.4610158 376.11145304 C97.17190064 376.12014396 109.88276729 376.13590668 122.59364136 376.15430559 C135.64647624 376.17304122 148.69930163 376.18412446 161.7521494 376.18817699 C169.79954945 376.19091446 177.8468981 376.19954512 185.89428232 376.21583293 C192.07607088 376.22770371 198.25782066 376.22890212 204.43961906 376.22621536 C206.96748927 376.22676386 209.4953615 376.23071911 212.02322006 376.23841095 C233.96181362 376.33083875 233.96181362 376.33083875 255.25 371.5 C255.89839844 371.28730469 256.54679687 371.07460938 257.21484375 370.85546875 C260.80487175 369.80641632 260.80487175 369.80641632 263 367 C265.15788312 366.05431417 267.35212122 365.19047955 269.5625 364.375 C270.76003906 363.92898438 271.95757812 363.48296875 273.19140625 363.0234375 C274.11824219 362.68570312 275.04507812 362.34796875 276 362 C276 361.34 276 360.68 276 360 C276.804375 359.9071875 276.804375 359.9071875 277.625 359.8125 C281.11156962 358.61972618 283.24940393 356.43802834 286 354 C284.23536928 347.89262558 282.30442525 341.92566493 280 336 C279.34 336 278.68 336 278 336 C278 335.01 278 334.02 278 333 C277.34 333 276.68 333 276 333 C275.896875 332.113125 275.79375 331.22625 275.6875 330.3125 C274.97173579 326.86381789 273.80662508 324.98292887 272 322 C269.27536109 315.71453989 267.63002925 309.80431593 267 303 C266.67 302.67 266.34 302.34 266 302 C263.03974189 281.52849938 263.6212294 260.3491463 263.45739746 239.71405029 C263.40439177 233.1499624 263.33992571 226.5860056 263.26918221 220.0220871 C263.24664257 217.75824772 263.23021486 215.49442513 263.21446228 213.23052979 C263.20105596 211.84281199 263.18744119 210.45509618 263.17358398 209.06738281 C263.16407211 207.86752747 263.15456024 206.66767212 263.14476013 205.43145752 C262.99555621 201.89466251 262.50082702 198.50249499 262 195 C261.87326742 192.44936788 261.78765515 189.89648958 261.73461914 187.34326172 C261.70995827 186.24651375 261.70995827 186.24651375 261.68479919 185.12760925 C261.64975021 183.55082883 261.61654321 181.97400657 261.58500862 180.39715195 C261.53434087 177.88932997 261.47765058 175.3817082 261.41929626 172.87405396 C261.2543225 165.74759918 261.09836486 158.62096939 260.95043945 151.49414062 C260.85927295 147.12219227 260.75969439 142.75049764 260.65517998 138.37884903 C260.61732938 136.72617661 260.58261222 135.07342894 260.5512867 133.42061996 C260.38601647 124.73187199 259.99091374 116.33393667 258.45005798 107.75386047 C257.58216252 102.44329361 257.57054694 97.07835513 257.43359375 91.70898438 C257.2825251 87.34441403 256.92199542 83.24604857 255.99609375 78.97265625 C254.91826998 73.99610384 254.67766771 69.20337048 254.5625 64.125 C254.25282848 55.10197567 253.52063542 46.16433743 252.5625 37.1875 C252.44011963 36.01396973 252.31773926 34.84043945 252.19165039 33.63134766 C251.49258024 27.29559802 250.51984528 21.19123121 249 15 C246.36 15 243.72 15 241 15 Z " fill="#18181A" transform="translate(148,115)"/>
<path d="M0 0 C11.00627682 0.13587996 21.0793563 2.01075797 29.26269531 9.81347656 C30.02582031 10.61785156 30.78894531 11.42222656 31.57519531 12.25097656 C32.33832031 12.80785156 33.10144531 13.36472656 33.88769531 13.93847656 C34.44457031 14.37160156 35.00144531 14.80472656 35.57519531 15.25097656 C35.57519531 15.91097656 35.57519531 16.57097656 35.57519531 17.25097656 C36.23519531 17.25097656 36.89519531 17.25097656 37.57519531 17.25097656 C38.56189291 19.14290131 39.53925551 21.03969634 40.51269531 22.93847656 C41.33060547 24.52208984 41.33060547 24.52208984 42.16503906 26.13769531 C44.31360826 30.88121235 44.72939647 35.01383633 44.76269531 40.18847656 C44.776875 41.1875 44.79105469 42.18652344 44.80566406 43.21582031 C44.17700489 51.494942 39.42591918 59.34512986 33.66503906 65.18847656 C32.5169476 66.16350116 31.34886915 67.11601156 30.15332031 68.03222656 C28.50340124 69.23451576 28.50340124 69.23451576 27.05957031 70.90722656 C25.57519531 72.25097656 25.57519531 72.25097656 22.57519531 72.25097656 C22.57519531 72.91097656 22.57519531 73.57097656 22.57519531 74.25097656 C16.15031011 76.80233306 10.53223821 77.73922986 3.63769531 77.62597656 C2.76032715 77.61800049 1.88295898 77.61002441 0.97900391 77.60180664 C-5.20774401 77.46551186 -10.72592296 76.80726507 -16.42480469 74.25097656 C-17.49730469 73.77660156 -18.56980469 73.30222656 -19.67480469 72.81347656 C-22.71096289 71.08838668 -25.61376873 69.32578882 -28.42480469 67.25097656 C-28.42480469 66.59097656 -28.42480469 65.93097656 -28.42480469 65.25097656 C-29.00230469 65.01636719 -29.57980469 64.78175781 -30.17480469 64.54003906 C-32.94871503 62.9508196 -34.44140969 61.12846322 -36.42480469 58.62597656 C-37.08480469 57.80871094 -37.74480469 56.99144531 -38.42480469 56.14941406 C-43.32634135 49.04601523 -45.04679325 43.79657495 -44.79980469 35.12597656 C-44.79851562 34.2584375 -44.79722656 33.39089844 -44.79589844 32.49707031 C-44.71090176 26.29231281 -43.93526215 21.51666275 -40.42480469 16.25097656 C-39.76480469 16.25097656 -39.10480469 16.25097656 -38.42480469 16.25097656 C-38.15667969 15.61160156 -37.88855469 14.97222656 -37.61230469 14.31347656 C-36.42480469 12.25097656 -36.42480469 12.25097656 -33.42480469 11.25097656 C-33.42480469 10.59097656 -33.42480469 9.93097656 -33.42480469 9.25097656 C-30.66646044 6.79911501 -27.85028734 5.54710513 -24.42480469 4.25097656 C-24.09480469 3.92097656 -23.76480469 3.59097656 -23.42480469 3.25097656 C-20.59160529 2.67716403 -17.74560707 2.22141819 -14.89355469 1.75097656 C-9.85984061 0.73149017 -5.49295388 0.00205344 0 0 Z " fill="#191818" transform="translate(206.4248046875,254.7490234375)"/>
<path d="M0 0 C0.79535156 0.00563965 1.59070313 0.0112793 2.41015625 0.01708984 C12.3533161 0.22220813 21.37227201 2.85506919 29.1875 9.3125 C29.96484375 11.50390625 29.96484375 11.50390625 30.1875 13.3125 C30.77144531 13.39886719 31.35539062 13.48523438 31.95703125 13.57421875 C34.80508287 14.51691885 35.93562528 15.85748812 37.875 18.125 C38.77798828 19.15560547 38.77798828 19.15560547 39.69921875 20.20703125 C44.12926284 26.47420649 42.96485967 36.95271332 42.1875 44.3125 C41.08636695 48.15222687 39.53028705 51.09425042 37.1875 54.3125 C36.71828125 54.96476562 36.2490625 55.61703125 35.765625 56.2890625 C33.2815997 59.42748156 30.667963 61.7931165 27.375 64.0625 C23.96255368 65.99953809 23.96255368 65.99953809 23.1875 69.3125 C17.49765589 72.16726608 11.47624678 73.62894057 5.1875 74.3125 C4.8575 74.6425 4.5275 74.9725 4.1875 75.3125 C-9.26252667 76.73855302 -22.84689185 76.25989409 -34.00390625 67.9296875 C-38.47352951 64.02532298 -41.77010167 60.38602059 -44.8125 55.3125 C-45.8025 54.6525 -46.7925 53.9925 -47.8125 53.3125 C-50.26627717 45.9511685 -50.13135061 35.62475844 -47.87109375 28.234375 C-45.52330727 23.90679364 -42.37711015 20.69430963 -38.8125 17.3125 C-38.11125 16.24 -37.41 15.1675 -36.6875 14.0625 C-34.8125 11.3125 -34.8125 11.3125 -31.8125 10.3125 C-31.1525 9.3225 -30.4925 8.3325 -29.8125 7.3125 C-26.80078125 5.99609375 -26.80078125 5.99609375 -23.125 4.75 C-21.92488281 4.33621094 -20.72476562 3.92242187 -19.48828125 3.49609375 C-17.66876953 2.91021484 -17.66876953 2.91021484 -15.8125 2.3125 C-14.6884375 1.93867188 -13.564375 1.56484375 -12.40625 1.1796875 C-8.18457517 0.16097901 -4.32489633 -0.03207021 0 0 Z " fill="#191919" transform="translate(320.8125,259.6875)"/>
<path d="M0 0 C2.67978548 2.67978548 2.68946074 4.79002285 3.375 8.5 C7.01048544 26.14016333 16.4302461 41.66200343 27.83984375 55.390625 C29.04114769 56.84174802 30.2320308 58.30236308 31.37890625 59.796875 C36.55381328 66.50442001 43.67334613 70.97752336 51 75 C53.4375 76.625 53.4375 76.625 55 78 C55 78.66 55 79.32 55 80 C55.97839844 80.29003906 55.97839844 80.29003906 56.9765625 80.5859375 C59.65325771 81.38341896 62.32669527 82.19123568 65 83 C66.175625 83.350625 67.35125 83.70125 68.5625 84.0625 C71 85 71 85 72 87 C80.57843997 90.74331926 89.77926624 91.1545174 99 92 C99 92.66 99 93.32 99 94 C132.41079495 93.91814271 165.82154324 93.82593706 199.23227007 93.71994839 C203.18113229 93.70743026 207.12999477 93.69499737 211.07885742 93.68261719 C211.86496969 93.68015119 212.65108195 93.6776852 213.4610158 93.67514448 C226.1718795 93.63547419 238.88275204 93.60270156 251.59364136 93.57250018 C264.6465038 93.5413319 277.69932894 93.5026997 290.7521494 93.45720994 C298.79952442 93.42939753 306.8468723 93.40733327 314.89428232 93.39273749 C321.07610148 93.38090007 327.25784432 93.35865321 333.43961906 93.33261681 C335.96747612 93.32357658 338.49534769 93.31785914 341.02322006 93.31578636 C362.16010343 93.57947881 362.16010343 93.57947881 382.625 88.875 C387.72992701 87 387.72992701 87 391 87 C391.33 86.01 391.66 85.02 392 84 C394.1796875 82.83203125 394.1796875 82.83203125 396.875 81.8125 C397.75929688 81.46832031 398.64359375 81.12414062 399.5546875 80.76953125 C402 80 402 80 405 80 C405 79.34 405 78.68 405 78 C406.7578125 77.05598958 408.515625 76.11197917 410.2734375 75.16796875 C412.30502365 73.95236507 412.30502365 73.95236507 414 71 C413.6878236 68.35367713 413.6878236 68.35367713 413 66 C413.66 66.33 414.32 66.66 415 67 C415 67.66 415 68.32 415 69 C415.66 69 416.32 69 417 69 C417 70.32 417 71.64 417 73 C417.66 73.33 418.32 73.66 419 74 C418.21753906 74.47050781 417.43507813 74.94101562 416.62890625 75.42578125 C415.11103516 76.35970703 415.11103516 76.35970703 413.5625 77.3125 C412.55316406 77.92738281 411.54382813 78.54226563 410.50390625 79.17578125 C407.73729397 80.82051965 407.73729397 80.82051965 407 84 C405.02 84.33 403.04 84.66 401 85 C401 85.66 401 86.32 401 87 C394.5 90 394.5 90 390 90 C390 90.66 390 91.32 390 92 C389.2265625 92.12117188 388.453125 92.24234375 387.65625 92.3671875 C380.55927077 93.50368257 380.55927077 93.50368257 373.5625 95.125 C370.51234389 95.87416115 368.11037431 96.19439839 365 96 C365 96.66 365 97.32 365 98 C331.25814833 98.09169965 297.51632785 98.16211171 263.7743791 98.20426132 C259.78431894 98.20926371 255.79425902 98.21444104 251.80419922 98.21972656 C251.00990204 98.2207758 250.21560486 98.22182505 249.39723808 98.22290608 C236.56225401 98.24027717 223.72734214 98.27179653 210.8924008 98.30861118 C197.70734336 98.34611263 184.52232353 98.36825524 171.33721495 98.37635398 C163.21144789 98.38182274 155.08588494 98.3990497 146.96018076 98.43166587 C141.37632746 98.45292763 135.79257856 98.4591739 130.20868778 98.45400551 C126.99447479 98.45146166 123.78068779 98.45739804 120.5665226 98.4768219 C108.37893251 98.54682296 96.98516399 98.53193625 85.25806427 94.95669174 C81.95792199 93.89831006 81.95792199 93.89831006 78.26299286 93.49786758 C75 93 75 93 72 91 C71.113125 90.71125 70.22625 90.4225 69.3125 90.125 C65.33172756 88.77303955 61.71860033 86.94424281 58 85 C58 84.34 58 83.68 58 83 C57.01 82.9071875 57.01 82.9071875 56 82.8125 C51.8783325 81.69621505 48.34249498 79.66238434 45 77 C45 76.34 45 75.68 45 75 C44.443125 74.938125 43.88625 74.87625 43.3125 74.8125 C40.01057134 73.6523629 38.37092009 71.54440205 36 69 C35.175 68.175 34.35 67.35 33.5 66.5 C32.675 65.675 31.85 64.85 31 64 C30.154375 63.175 29.30875 62.35 28.4375 61.5 C26 59 26 59 23.875 56.3125 C22.03438927 53.80846331 22.03438927 53.80846331 19 52 C17.89453125 50.22265625 17.89453125 50.22265625 16.8125 48.0625 C14.80602837 44.25691247 12.50775415 40.96334206 9.875 37.5625 C6.10760712 32.46875906 4.45922317 28.0887824 3 22 C2.45859375 20.28876953 2.45859375 20.28876953 1.90625 18.54296875 C-0.18804109 11.89925479 -1.6419926 6.84163583 0 0 Z " fill="#414141" transform="translate(19,397)"/>
<path d="M0 0 C7.93519066 -0.53369424 14.84881875 2.63446676 20.83203125 7.7265625 C21.51265625 8.5515625 22.19328125 9.3765625 22.89453125 10.2265625 C23.65765625 11.1134375 24.42078125 12.0003125 25.20703125 12.9140625 C26.89453125 15.2265625 26.89453125 15.2265625 26.89453125 17.2265625 C27.55453125 17.2265625 28.21453125 17.2265625 28.89453125 17.2265625 C30.22244841 22.53823114 30.64159267 27.98537825 28.89453125 33.2265625 C28.23453125 33.2265625 27.57453125 33.2265625 26.89453125 33.2265625 C26.60578125 33.8659375 26.31703125 34.5053125 26.01953125 35.1640625 C24.89453125 37.2265625 24.89453125 37.2265625 22.89453125 38.2265625 C22.56453125 39.2165625 22.23453125 40.2065625 21.89453125 41.2265625 C20.90453125 41.2265625 19.91453125 41.2265625 18.89453125 41.2265625 C18.86875 40.11796875 18.84296875 39.009375 18.81640625 37.8671875 C18.76011469 36.40360703 18.70276758 34.94006688 18.64453125 33.4765625 C18.63035156 32.74695313 18.61617187 32.01734375 18.6015625 31.265625 C18.44163995 27.74732899 18.18786689 25.61356834 16.03515625 22.7734375 C12.08532732 19.91918156 8.64179455 19.9810144 3.89453125 20.2265625 C0.40313331 21.25811189 -1.79279637 22.41718701 -4.10546875 25.2265625 C-4.60491485 27.24449076 -4.60491485 27.24449076 -4.6171875 29.45703125 C-4.65263672 30.25947266 -4.68808594 31.06191406 -4.72460938 31.88867188 C-4.74716797 32.72205078 -4.76972656 33.55542969 -4.79296875 34.4140625 C-4.82712891 35.25904297 -4.86128906 36.10402344 -4.89648438 36.97460938 C-4.97888346 39.05812899 -5.0438552 41.14232466 -5.10546875 43.2265625 C-11.98056432 42.21001837 -16.44307601 40.52526194 -21.10546875 35.2265625 C-26.10546875 28.41643592 -26.10546875 28.41643592 -26.10546875 25.2265625 C-26.76546875 25.2265625 -27.42546875 25.2265625 -28.10546875 25.2265625 C-29.40268324 21.33491902 -29.23580868 18.33227024 -29.10546875 14.2265625 C-28.77546875 13.5665625 -28.44546875 12.9065625 -28.10546875 12.2265625 C-27.44546875 12.2265625 -26.78546875 12.2265625 -26.10546875 12.2265625 C-25.83734375 11.6284375 -25.56921875 11.0303125 -25.29296875 10.4140625 C-22.01875734 4.38262042 -16.36225234 3.10273695 -10.10546875 1.2265625 C-6.74764204 0.49372733 -3.41085511 0.36703079 0 0 Z " fill="#EDEDED" transform="translate(205.10546875,269.7734375)"/>
<path d="M0 0 C5.83333521 4.13057258 11.12855199 9.2085169 14.01171875 15.84375 C14.54205243 20.72281988 13.66749379 23.7315822 11.01171875 27.84375 C7.47795313 31.4298677 3.52566151 34.58677862 -0.98828125 36.84375 C-1.97828125 36.84375 -2.96828125 36.84375 -3.98828125 36.84375 C-3.98828125 32.55375 -3.98828125 28.26375 -3.98828125 23.84375 C-4.64828125 23.84375 -5.30828125 23.84375 -5.98828125 23.84375 C-5.98828125 23.18375 -5.98828125 22.52375 -5.98828125 21.84375 C-6.64828125 21.84375 -7.30828125 21.84375 -7.98828125 21.84375 C-9.32161458 20.51041667 -10.65494792 19.17708333 -11.98828125 17.84375 C-16.17358588 16.44864846 -19.63250559 16.17067124 -23.9296875 17.3984375 C-26.37819074 18.63546836 -27.45318277 19.53280445 -28.98828125 21.84375 C-30.19446484 27.16483426 -30.67510166 32.40465138 -30.98828125 37.84375 C-37.06286091 36.35400108 -40.78731538 34.70802627 -44.98828125 29.84375 C-47.23872132 26.11888368 -48.77336365 23.21778054 -47.98828125 18.84375 C-46.17578125 16.34375 -46.17578125 16.34375 -43.98828125 13.84375 C-43.57578125 13.06 -43.16328125 12.27625 -42.73828125 11.46875 C-39.86393337 7.15722818 -35.963233 2.79998449 -30.91015625 1.17578125 C-28.98828125 0.90625 -28.98828125 0.90625 -25.98828125 0.84375 C-25.98828125 0.18375 -25.98828125 -0.47625 -25.98828125 -1.15625 C-18.42939361 -2.90060869 -6.8798806 -4.00087359 0 0 Z " fill="#F0F0F0" transform="translate(333.98828125,278.15625)"/>
<path d="M0 0 C36.6296392 -0.0687048 73.25926709 -0.12154842 109.88895749 -0.15319599 C114.21592945 -0.15694799 118.54290128 -0.16083097 122.86987305 -0.16479492 C123.7312753 -0.16558185 124.59267756 -0.16636878 125.48018291 -0.16717956 C139.41783575 -0.18022441 153.35545137 -0.20387318 167.29308216 -0.23145839 C181.60021995 -0.25953823 195.90733829 -0.27618171 210.21450251 -0.28226548 C219.0388813 -0.28637658 227.86315488 -0.29934924 236.68750127 -0.3237494 C242.74319731 -0.33963843 248.79883916 -0.3443932 254.85455451 -0.34050413 C258.3455237 -0.3385875 261.83630937 -0.34147267 265.32724571 -0.35761642 C269.12019004 -0.37258612 272.9126876 -0.36893674 276.7056427 -0.36076355 C277.7980855 -0.36950207 278.8905283 -0.3782406 280.01607543 -0.38724393 C286.89488684 -0.34729834 293.61423586 0.24317139 300 3 C300.66 3.99 301.32 4.98 302 6 C298.66666667 5.33333333 295.33333333 4.66666667 292 4 C292 3.34 292 2.68 292 2 C195.31 2 98.62 2 -1 2 C-0.67 1.34 -0.34 0.68 0 0 Z " fill="#CEBCF3" transform="translate(106,8)"/>
<path d="M0 0 C0.66 0.33 1.32 0.66 2 1 C2 1.66 2 2.32 2 3 C2.66 3 3.32 3 4 3 C4 4.32 4 5.64 4 7 C4.66 7.33 5.32 7.66 6 8 C4.82630859 8.70576172 4.82630859 8.70576172 3.62890625 9.42578125 C2.61699219 10.04839844 1.60507812 10.67101562 0.5625 11.3125 C-0.44683594 11.92738281 -1.45617187 12.54226563 -2.49609375 13.17578125 C-5.26270603 14.82051965 -5.26270603 14.82051965 -6 18 C-7.98 18.33 -9.96 18.66 -12 19 C-12 19.66 -12 20.32 -12 21 C-18.5 24 -18.5 24 -23 24 C-23 24.66 -23 25.32 -23 26 C-23.7734375 26.12117188 -24.546875 26.24234375 -25.34375 26.3671875 C-26.3853125 26.53476562 -27.426875 26.70234375 -28.5 26.875 C-29.5209375 27.03742188 -30.541875 27.19984375 -31.59375 27.3671875 C-35.04537666 27.94957332 -35.04537666 27.94957332 -38.51284504 29.02563 C-43.73453852 30.33535861 -48.84398056 30.26277251 -54.20072937 30.22273254 C-55.8633133 30.22234554 -55.8633133 30.22234554 -57.55948478 30.22195071 C-61.26329403 30.21856637 -64.96688869 30.20072498 -68.6706543 30.18286133 C-71.33051274 30.1773443 -73.99036241 30.17261031 -76.65022278 30.16879272 C-83.1199206 30.15757013 -89.5895345 30.135283 -96.05918612 30.10880206 C-101.32155782 30.08739145 -106.58392987 30.06961113 -111.84632301 30.05438805 C-112.59638395 30.05220787 -113.34644489 30.0500277 -114.11923495 30.04778146 C-115.64321217 30.04335563 -117.16718939 30.03893277 -118.69116662 30.03451284 C-132.97458639 29.99255443 -147.25793332 29.93745328 -161.5412908 29.87832262 C-174.58789635 29.82471604 -187.6344883 29.78743271 -200.6811687 29.757924 C-214.09591053 29.72743699 -227.5105773 29.6859516 -240.92524844 29.63263911 C-248.44907844 29.60292731 -255.97286307 29.57747339 -263.49674034 29.56351662 C-269.90415875 29.5515069 -276.31143881 29.52902659 -282.71877088 29.49336074 C-285.98318842 29.47546866 -289.24741143 29.46378628 -292.51188278 29.46190834 C-317.68179678 29.44169547 -317.68179678 29.44169547 -328 26 C-324.68196072 25.08414715 -322.18329961 25.03092505 -318.75 25.4375 C-317.85796875 25.53933594 -316.9659375 25.64117187 -316.046875 25.74609375 C-315.37140625 25.82988281 -314.6959375 25.91367187 -314 26 C-314 26.66 -314 27.32 -314 28 C-280.58920505 27.91814271 -247.17845676 27.82593706 -213.76772993 27.71994839 C-209.81886771 27.70743026 -205.87000523 27.69499737 -201.92114258 27.68261719 C-201.13503031 27.68015119 -200.34891805 27.6776852 -199.5389842 27.67514448 C-186.8281205 27.63547419 -174.11724796 27.60270156 -161.40635864 27.57250018 C-148.3534962 27.5413319 -135.30067106 27.5026997 -122.2478506 27.45720994 C-114.20047558 27.42939753 -106.1531277 27.40733327 -98.10571768 27.39273749 C-91.92389852 27.38090007 -85.74215568 27.35865321 -79.56038094 27.33261681 C-77.03252388 27.32357658 -74.50465231 27.31785914 -71.97677994 27.31578636 C-50.83989657 27.57947881 -50.83989657 27.57947881 -30.375 22.875 C-25.27007299 21 -25.27007299 21 -22 21 C-21.67 20.01 -21.34 19.02 -21 18 C-18.8203125 16.83203125 -18.8203125 16.83203125 -16.125 15.8125 C-15.24070312 15.46832031 -14.35640625 15.12414062 -13.4453125 14.76953125 C-11 14 -11 14 -8 14 C-8 13.34 -8 12.68 -8 12 C-6.2421875 11.05598958 -4.484375 10.11197917 -2.7265625 9.16796875 C-0.69497635 7.95236507 -0.69497635 7.95236507 1 5 C0.6878236 2.35367713 0.6878236 2.35367713 0 0 Z " fill="#7F7E7E" transform="translate(432,463)"/>
<path d="M0 0 C-3.86323338 1.28774446 -7.57490537 1.23382793 -11.60546875 1.31640625 C-12.44467361 1.33718735 -13.28387848 1.35796844 -14.14851379 1.37937927 C-16.82809294 1.44474018 -19.50776969 1.50369714 -22.1875 1.5625 C-24.00456737 1.60569802 -25.82162488 1.64931273 -27.63867188 1.69335938 C-32.09234799 1.8004078 -36.54612226 1.90171319 -41 2 C-41.33 7.28 -41.66 12.56 -42 18 C-28.47 18 -14.94 18 -1 18 C-1 18.33 -1 18.66 -1 19 C-14.2 19 -27.4 19 -41 19 C-40.67 40.12 -40.34 61.24 -40 83 C-40.33 83 -40.66 83 -41 83 C-44.54823368 71.09361556 -44.39500539 59.4012674 -44.28125 47.08813477 C-44.25016198 43.70512698 -44.24026854 40.32258967 -44.234375 36.93945312 C-44.20000656 27.27031822 -44.0856613 17.61276211 -43.546875 7.95703125 C-43.5086261 7.25325851 -43.4703772 6.54948578 -43.43096924 5.8243866 C-43.12782235 1.12782235 -43.12782235 1.12782235 -42 0 C-39.2370119 -0.1727225 -36.49664628 -0.28406678 -33.73046875 -0.3515625 C-32.48164665 -0.38629166 -32.48164665 -0.38629166 -31.20759583 -0.42172241 C-29.4414395 -0.46944212 -27.67521428 -0.51466621 -25.90893555 -0.55761719 C-23.20920475 -0.62446259 -20.50994795 -0.70231293 -17.81054688 -0.78125 C-16.09637156 -0.82618931 -14.38217913 -0.87048114 -12.66796875 -0.9140625 C-11.86054733 -0.93796051 -11.05312592 -0.96185852 -10.22123718 -0.98648071 C-6.61930249 -1.06671691 -3.46319198 -0.9822552 0 0 Z " fill="#3C3846" transform="translate(59,320)"/>
<path d="M0 0 C0.66 0.33 1.32 0.66 2 1 C2 1.66 2 2.32 2 3 C2.66 3 3.32 3 4 3 C4 4.32 4 5.64 4 7 C4.66 7.33 5.32 7.66 6 8 C5.21753906 8.47050781 4.43507813 8.94101562 3.62890625 9.42578125 C2.61699219 10.04839844 1.60507812 10.67101562 0.5625 11.3125 C-0.44683594 11.92738281 -1.45617187 12.54226563 -2.49609375 13.17578125 C-5.26270603 14.82051965 -5.26270603 14.82051965 -6 18 C-8.97 18.495 -8.97 18.495 -12 19 C-12 19.66 -12 20.32 -12 21 C-18.5 24 -18.5 24 -23 24 C-23 24.66 -23 25.32 -23 26 C-23.7734375 26.12117188 -24.546875 26.24234375 -25.34375 26.3671875 C-32.24536016 27.45172548 -32.24536016 27.45172548 -39 29.1875 C-44.26520348 30.62650688 -49.66178525 29.65837982 -55 29 C-55 28.67 -55 28.34 -55 28 C-53.83984375 27.82984375 -52.6796875 27.6596875 -51.484375 27.484375 C-43.13001186 26.20618521 -35.23587445 24.75524399 -27.28515625 21.76953125 C-25 21 -25 21 -22 21 C-21.505 19.515 -21.505 19.515 -21 18 C-18.8203125 16.83203125 -18.8203125 16.83203125 -16.125 15.8125 C-15.24070312 15.46832031 -14.35640625 15.12414062 -13.4453125 14.76953125 C-11 14 -11 14 -8 14 C-8 13.34 -8 12.68 -8 12 C-6.2421875 11.05598958 -4.484375 10.11197917 -2.7265625 9.16796875 C-0.69497635 7.95236507 -0.69497635 7.95236507 1 5 C0.6878236 2.35367713 0.6878236 2.35367713 0 0 Z " fill="#8E8E8E" transform="translate(432,463)"/>
<path d="M0 0 C4.20742262 0.55043343 6.72497013 1.93686641 10.125 4.4375 C10.97320312 5.05496094 11.82140625 5.67242187 12.6953125 6.30859375 C13.45585938 6.86675781 14.21640625 7.42492187 15 8 C15.99 8.66 16.98 9.32 18 10 C18 10.66 18 11.32 18 12 C18.65226562 12.19335938 19.30453125 12.38671875 19.9765625 12.5859375 C22.65325771 13.38341896 25.32669527 14.19123568 28 15 C29.175625 15.350625 30.35125 15.70125 31.5625 16.0625 C34 17 34 17 35 19 C37.28932843 19.93246798 39.52739926 20.74407997 41.875 21.5 C42.54668213 21.72067139 43.21836426 21.94134277 43.91040039 22.16870117 C49.52761217 23.96100226 55.15699316 25.18610923 61 26 C55.13163056 29.91224629 46.75719058 26.86373303 40.12890625 25.59765625 C38 25 38 25 35 23 C34.113125 22.71125 33.22625 22.4225 32.3125 22.125 C28.33172756 20.77303955 24.71860033 18.94424281 21 17 C21 16.34 21 15.68 21 15 C20.34 14.938125 19.68 14.87625 19 14.8125 C14.8783325 13.69621505 11.34249498 11.66238434 8 9 C8 8.34 8 7.68 8 7 C7.4225 6.9175 6.845 6.835 6.25 6.75 C3.3460664 5.78202213 1.96259396 4.31305716 0 2 C0 1.34 0 0.68 0 0 Z " fill="#59595A" transform="translate(56,465)"/>
<path d="M0 0 C2.62499915 0.00502563 5.24999922 0.00958665 7.875 0.01367188 C14.25002065 0.02459188 20.62500586 0.04124552 27 0.0625 C27 0.7225 27 1.3825 27 2.0625 C38.22 2.0625 49.44 2.0625 61 2.0625 C61 2.7225 61 3.3825 61 4.0625 C56.85978559 4.08769558 52.71961477 4.10558741 48.5793457 4.11743164 C47.17829611 4.12238235 45.77725144 4.12914464 44.3762207 4.13793945 C37.33099354 4.18097534 30.35516321 4.14150912 23.328125 3.56640625 C12.00854451 2.72733871 0.65196414 2.9139077 -10.69213867 2.93212891 C-14.04877269 2.93664134 -17.40525291 2.93449299 -20.7618742 2.92855644 C-23.99099192 2.92407975 -27.22010001 2.92720833 -30.44921875 2.9296875 C-31.65019699 2.92766327 -32.85117523 2.92563904 -34.08854675 2.92355347 C-35.75727592 2.92828171 -35.75727592 2.92828171 -37.4597168 2.93310547 C-38.92407417 2.93429886 -38.92407417 2.93429886 -40.41801453 2.93551636 C-42.77662242 3.05151415 -44.73590848 3.43654181 -47 4.0625 C-50.87225032 4.28450703 -54.74700747 4.24762959 -58.625 4.25 C-59.6871875 4.26224609 -60.749375 4.27449219 -61.84375 4.28710938 C-62.85695312 4.28904297 -63.87015625 4.29097656 -64.9140625 4.29296875 C-65.8417041 4.29707764 -66.7693457 4.30118652 -67.72509766 4.30541992 C-70 4.0625 -70 4.0625 -72 2.0625 C-71.09290283 2.07035522 -71.09290283 2.07035522 -70.16748047 2.07836914 C-67.40333106 2.09927358 -64.63919835 2.11220279 -61.875 2.125 C-60.92367187 2.13337891 -59.97234375 2.14175781 -58.9921875 2.15039062 C-58.0640625 2.15361328 -57.1359375 2.15683594 -56.1796875 2.16015625 C-54.90714111 2.16801147 -54.90714111 2.16801147 -53.60888672 2.17602539 C-50.67408948 2.04831804 -47.89448719 1.55842305 -45 1.0625 C-30.06251414 -0.46811658 -14.99244623 -0.05016412 0 0 Z " fill="#A9A9A9" transform="translate(276,183.9375)"/>
<path d="M0 0 C1.01756882 0.00232635 1.01756882 0.00232635 2.05569458 0.00469971 C29.94180111 0.0794691 29.94180111 0.0794691 39.6875 3.125 C39.6875 3.455 39.6875 3.785 39.6875 4.125 C39.11757324 4.09470703 38.54764648 4.06441406 37.96044922 4.03320312 C-3.20437967 1.86805558 -3.20437967 1.86805558 -44.1328125 5.703125 C-50.10163752 6.49505756 -56.33127491 6.84460405 -62.3125 6.125 C-62.9725 5.135 -63.6325 4.145 -64.3125 3.125 C-63.71937012 3.13547363 -63.12624023 3.14594727 -62.51513672 3.15673828 C-47.12542795 3.42097308 -47.12542795 3.42097308 -31.87109375 1.66015625 C-21.29795545 0.07012338 -10.67162453 -0.03818584 0 0 Z " fill="#492C8E" transform="translate(269.3125,163.875)"/>
<path d="M0 0 C0 0.66 0 1.32 0 2 C-11.45114452 5.55187033 -22.44212739 5.34782736 -34.3125 5.1875 C-40.809375 5.125625 -47.30625 5.06375 -54 5 C-53.67 23.81 -53.34 42.62 -53 62 C-53.33 62 -53.66 62 -54 62 C-55.12644823 55.70514223 -55.12817673 49.54322366 -55.09765625 43.16015625 C-55.0962413 42.03806259 -55.09482635 40.91596893 -55.09336853 39.75987244 C-55.087794 36.19405392 -55.07524616 32.62829938 -55.0625 29.0625 C-55.05748171 26.6373707 -55.05291938 24.21224041 -55.04882812 21.78710938 C-55.03783291 15.85805128 -55.0211202 9.92903021 -55 4 C-53.84588623 3.98541748 -52.69177246 3.97083496 -51.50268555 3.95581055 C-47.17296153 3.89732656 -42.84373069 3.82010194 -38.5144043 3.73754883 C-36.64957758 3.70453307 -34.78465652 3.67643047 -32.91967773 3.65356445 C-19.29367213 3.60357069 -19.29367213 3.60357069 -6.06958008 0.63208008 C-4 0 -4 0 0 0 Z " fill="#BEBEBE" transform="translate(73,335)"/>
<path d="M0 0 C0.33 0 0.66 0 1 0 C1.08202053 2.0201352 1.13964668 4.04126679 1.1875 6.0625 C1.22230469 7.18785156 1.25710937 8.31320312 1.29296875 9.47265625 C1.01234877 12.85132075 0.14566281 15.02353044 -1.21504211 18.07594299 C-2.51192013 21.25479792 -3.26726774 24.56766444 -4.04296875 27.90234375 C-4.21629227 28.6249086 -4.38961578 29.34747345 -4.56819153 30.0919342 C-5.11381898 32.37244047 -5.65079584 34.65487912 -6.1875 36.9375 C-6.55867185 38.49557931 -6.93041138 40.0535235 -7.30273438 41.61132812 C-8.20838814 45.40602281 -9.10629627 49.20247397 -10 53 C-10.94812679 49.94851292 -10.99616668 47.81193749 -10.3984375 44.68359375 C-10.24028564 43.84594482 -10.08213379 43.0082959 -9.91918945 42.14526367 C-9.73960693 41.25170166 -9.56002441 40.35813965 -9.375 39.4375 C-9.19477295 38.51235596 -9.0145459 37.58721191 -8.82885742 36.6340332 C-7.39372943 29.47423754 -5.65167104 22.41994303 -3.66357422 15.39428711 C-2.65032041 11.76473929 -1.84688427 8.26816961 -1.41796875 4.51953125 C-1 1 -1 1 0 0 Z " fill="#392570" transform="translate(94,249)"/>
<path d="M0 0 C6.28797246 0.41232606 11.27977056 1.73355644 17.13671875 4.01171875 C21.65610993 5.57161775 26.28080869 6.30626975 31 7 C26.58094644 9.94603571 23.08685855 8.75040183 18 8 C17.14277344 7.8865625 16.28554687 7.773125 15.40234375 7.65625 C9.44076219 6.69797414 4.74303455 4.80237686 0 1 C0 0.67 0 0.34 0 0 Z " fill="#404141" transform="translate(86,484)"/>
<path d="M0 0 C2.0625 0.4375 2.0625 0.4375 4 1 C3.01 1 2.02 1 1 1 C1 1.66 1 2.32 1 3 C-5.42564141 5.55165679 -11.04248643 6.48633817 -17.9375 6.375 C-18.81051758 6.36919922 -19.68353516 6.36339844 -20.58300781 6.35742188 C-26.73719455 6.23337332 -32.31503629 5.51335238 -38 3 C-38 2.67 -38 2.34 -38 2 C-30.25 1.875 -30.25 1.875 -28 3 C-25.13393248 3.12614217 -22.30389731 3.19008002 -19.4375 3.1875 C-18.2165564 3.18737915 -18.2165564 3.18737915 -16.97094727 3.18725586 C-7.86921688 3.46117831 -7.86921688 3.46117831 0 0 Z " fill="#737373" transform="translate(228,326)"/>
<path d="M0 0 C0.33 0 0.66 0 1 0 C0.85879984 2.58366245 0.71221667 5.16682885 0.5625 7.75 C0.52318359 8.47960937 0.48386719 9.20921875 0.44335938 9.9609375 C0.11230121 15.5634603 0.11230121 15.5634603 -0.50439453 17.96069336 C-1.04650994 20.1913781 -1.17504925 22.22625296 -1.24609375 24.51953125 C-1.27896484 25.37740234 -1.31183594 26.23527344 -1.34570312 27.11914062 C-1.40649768 28.90287885 -1.46383635 30.68673848 -1.51757812 32.47070312 C-1.72278556 37.64735118 -2.34380747 42.08506426 -4 47 C-4.33 47 -4.66 47 -5 47 C-4.93941406 46.07703125 -4.87882812 45.1540625 -4.81640625 44.203125 C-4.73261719 42.89859375 -4.64882812 41.5940625 -4.5625 40.25 C-4.49264893 39.18809448 -4.49264893 39.18809448 -4.42138672 38.10473633 C-4.16118176 34.02745696 -3.95290513 29.95449257 -3.81640625 25.87109375 C-3.49733768 16.89665723 -3.11364229 8.53803798 0 0 Z " fill="#9B9B9B" transform="translate(124,159)"/>
<path d="M0 0 C2.40870784 2.40870784 2.26542657 3.03603265 2.34375 6.33203125 C2.37218994 7.20641846 2.40062988 8.08080566 2.42993164 8.98168945 C2.46461548 10.38294067 2.46461548 10.38294067 2.5 11.8125 C2.70875995 17.89526239 2.97867069 23.80975307 4.0625 29.8125 C5.37419477 37.19685573 5.17260649 44.52997457 5 52 C4.67 52 4.34 52 4 52 C3.94465088 51.37432129 3.88930176 50.74864258 3.83227539 50.10400391 C3.57986101 47.27727803 3.32125807 44.45115193 3.0625 41.625 C2.97548828 40.64015625 2.88847656 39.6553125 2.79882812 38.640625 C2.71181641 37.69960937 2.62480469 36.75859375 2.53515625 35.7890625 C2.41732788 34.48509521 2.41732788 34.48509521 2.29711914 33.15478516 C2.11122166 30.95507084 2.11122166 30.95507084 1 29 C0.84530633 26.82325217 0.74997894 24.6421652 0.68359375 22.4609375 C0.64169922 21.15898437 0.59980469 19.85703125 0.55664062 18.515625 C0.51682701 17.13541955 0.47711478 15.75521117 0.4375 14.375 C0.39430593 12.98696585 0.35069135 11.59894472 0.30664062 10.2109375 C0.20028 6.80739744 0.09825286 3.40378222 0 0 Z " fill="#A7A7A6" transform="translate(403,197)"/>
<path d="M0 0 C0 0.66 0 1.32 0 2 C-10.32438879 5.81399242 -19.07927002 7.82012166 -30 6 C-30 5.67 -30 5.34 -30 5 C-28.80503906 4.80664062 -27.61007812 4.61328125 -26.37890625 4.4140625 C-16.42955915 2.83016352 -16.42955915 2.83016352 -6.5625 0.8125 C-3 0 -3 0 0 0 Z " fill="#3C3C3C" transform="translate(407,486)"/>
<path d="M0 0 C0.33 0 0.66 0 1 0 C1.65386178 27.31689235 1.65386178 27.31689235 -3 36 C-2.88879348 31.87450943 -2.75848948 27.74982493 -2.625 23.625 C-2.5940625 22.46871094 -2.563125 21.31242187 -2.53125 20.12109375 C-2.29730173 13.21961964 -1.63321078 6.71516393 0 0 Z " fill="#767575" transform="translate(118,207)"/>
<path d="M0 0 C0.66 0.33 1.32 0.66 2 1 C2 1.66 2 2.32 2 3 C2.66 3 3.32 3 4 3 C4 4.32 4 5.64 4 7 C4.66 7.33 5.32 7.66 6 8 C3.75944862 9.53663484 1.50937727 11.05400704 -0.75 12.5625 C-1.38421875 13.00013672 -2.0184375 13.43777344 -2.671875 13.88867188 C-7.50498766 17.08557452 -7.50498766 17.08557452 -10.21582031 16.61694336 C-11.09898926 16.3115564 -11.09898926 16.3115564 -12 16 C-9.67408279 13.39497273 -7.42237321 11.5852446 -4.375 9.9375 C-0.83862407 8.24048633 -0.83862407 8.24048633 1 5 C0.6878236 2.35367713 0.6878236 2.35367713 0 0 Z " fill="#656666" transform="translate(432,463)"/>
<path d="M0 0 C0.99 0.495 0.99 0.495 2 1 C2 1.66 2 2.32 2 3 C2.90298828 3.13341797 2.90298828 3.13341797 3.82421875 3.26953125 C6.58460192 4.19626671 7.22310845 5.28280097 8.8125 7.6875 C11.72741538 11.82503973 15.02620357 14.89620634 19 18 C18.01 18.66 17.02 19.32 16 20 C14.33333333 18.33333333 12.66666667 16.66666667 11 15 C10.195625 14.236875 9.39125 13.47375 8.5625 12.6875 C0 3.70731707 0 3.70731707 0 0 Z " fill="#444344" transform="translate(39,446)"/>
<path d="M0 0 C-0.99 0.33 -1.98 0.66 -3 1 C-3 1.66 -3 2.32 -3 3 C-10.66582223 4.90164107 -17.93614785 5.27631347 -25.8125 5.1875 C-26.91787109 5.18685547 -28.02324219 5.18621094 -29.16210938 5.18554688 C-33.92812981 5.15962894 -38.33689984 5.06184166 -43 4 C-43 3.67 -43 3.34 -43 3 C-33.43 3.33 -23.86 3.66 -14 4 C-14 3.34 -14 2.68 -14 2 C-11.69 2.33 -9.38 2.66 -7 3 C-7 2.01 -7 1.02 -7 0 C-2.25 -1.125 -2.25 -1.125 0 0 Z " fill="#494949" transform="translate(346,182)"/>
<path d="M0 0 C0 0.66 0 1.32 0 2 C-12.6357535 6.29717933 -25.84282627 5.28727454 -39 5 C-39 4.67 -39 4.34 -39 4 C-38.33057373 3.98541748 -37.66114746 3.97083496 -36.97143555 3.95581055 C-33.87627126 3.88037075 -30.78207545 3.78403473 -27.6875 3.6875 C-26.63498047 3.66494141 -25.58246094 3.64238281 -24.49804688 3.61914062 C-18.10341961 3.40270709 -12.45799447 2.56520499 -6.35083008 0.63208008 C-4 0 -4 0 0 0 Z " fill="#B1B1B1" transform="translate(73,335)"/>
<path d="M0 0 C4.49078423 4.03793204 5.75835845 9.14423624 6.2578125 15.046875 C6.35086545 20.39077279 6.20723208 25.03372781 4 30 C2.7736243 27.54724859 2.88584686 25.9494219 2.90234375 23.2109375 C2.90717773 21.79941406 2.90717773 21.79941406 2.91210938 20.359375 C2.92048828 19.37453125 2.92886719 18.3896875 2.9375 17.375 C2.94201172 16.38242187 2.94652344 15.38984375 2.95117188 14.3671875 C2.96297855 11.9113984 2.979446 9.45572896 3 7 C2.34 7 1.68 7 1 7 C0.67 4.69 0.34 2.38 0 0 Z " fill="#545354" transform="translate(245,277)"/>
<path d="M0 0 C0.66 0.33 1.32 0.66 2 1 C1.21625 1.721875 0.4325 2.44375 -0.375 3.1875 C-2.84412438 5.83299041 -3.93260278 7.60373611 -5 11 C-5.66 11 -6.32 11 -7 11 C-7.33 14.96 -7.66 18.92 -8 23 C-8.66 22.67 -9.32 22.34 -10 22 C-10.68009024 19.08532752 -11.14467891 16.9325303 -11 14 C-9.25 11.3125 -9.25 11.3125 -7 9 C-6.505 8.154375 -6.01 7.30875 -5.5 6.4375 C-3.93280055 3.8908009 -2.18151965 2.03107002 0 0 Z " fill="#9F9E9F" transform="translate(297,283)"/>
<path d="M0 0 C0.33 0 0.66 0 1 0 C1 5.28 1 10.56 1 16 C-7.49230769 14.52307692 -7.49230769 14.52307692 -10.0625 11.875 C-10.5265625 10.946875 -10.5265625 10.946875 -11 10 C-7.50470706 11.11213866 -4.25530808 12.31573191 -1 14 C-1.01160156 13.07316406 -1.02320313 12.14632813 -1.03515625 11.19140625 C-1.04417969 9.99386719 -1.05320313 8.79632813 -1.0625 7.5625 C-1.07410156 6.36753906 -1.08570313 5.17257812 -1.09765625 3.94140625 C-1 1 -1 1 0 0 Z " fill="#BBBCBB" transform="translate(199,297)"/>
<path d="M0 0 C0.66 0.33 1.32 0.66 2 1 C2.05790353 4.29159316 2.09356261 7.58305603 2.125 10.875 C2.14175781 11.81214844 2.15851563 12.74929688 2.17578125 13.71484375 C2.18222656 14.61074219 2.18867188 15.50664062 2.1953125 16.4296875 C2.20578613 17.25710449 2.21625977 18.08452148 2.22705078 18.93701172 C2 21 2 21 0 23 C-0.64767793 25.57061311 -0.64767793 25.57061311 -1 28 C-2.32 28.33 -3.64 28.66 -5 29 C-3.87548273 26.0280615 -2.77706209 23.66559313 -1 21 C0.25544983 16.61776947 0.11500101 12.20662504 0.0625 7.6875 C0.05798828 6.94693359 0.05347656 6.20636719 0.04882812 5.44335938 C0.03712175 3.62887101 0.01918898 1.81442466 0 0 Z " fill="#C4C3C4" transform="translate(250,285)"/>
<path d="M0 0 C0 3 0 3 -1 6 C-1.07973476 7.33525717 -1.10771338 8.67412083 -1.09765625 10.01171875 C-1.09443359 10.76904297 -1.09121094 11.52636719 -1.08789062 12.30664062 C-1.07951172 13.09232422 -1.07113281 13.87800781 -1.0625 14.6875 C-1.05798828 15.48478516 -1.05347656 16.28207031 -1.04882812 17.10351562 C-1.0370585 19.06904257 -1.01912348 21.03453085 -1 23 C-5.455 22.01 -5.455 22.01 -10 21 C-9.67 20.34 -9.34 19.68 -9 19 C-7.02 19.66 -5.04 20.32 -3 21 C-3.03480469 19.73542969 -3.06960937 18.47085937 -3.10546875 17.16796875 C-3.13360677 15.50782577 -3.16090691 13.84766844 -3.1875 12.1875 C-3.21263672 11.35412109 -3.23777344 10.52074219 -3.26367188 9.66210938 C-3.27817383 8.45844727 -3.27817383 8.45844727 -3.29296875 7.23046875 C-3.3086792 6.49207764 -3.32438965 5.75368652 -3.34057617 4.99291992 C-2.91074167 2.47769478 -1.92536938 1.60558484 0 0 Z " fill="#5B5B5B" transform="translate(203,292)"/>
<path d="M0 0 C2 1 2 1 3 2 C3.66 2 4.32 2 5 2 C5 2.66 5 3.32 5 4 C3.02 4.33 1.04 4.66 -1 5 C-1 5.66 -1 6.32 -1 7 C-1.5775 6.835 -2.155 6.67 -2.75 6.5 C-5.26664369 5.85537969 -5.26664369 5.85537969 -9 6 C-9.66 5.67 -10.32 5.34 -11 5 C-9.21289414 4.13633178 -7.4201535 3.28431406 -5.625 2.4375 C-4.62726563 1.96183594 -3.62953125 1.48617188 -2.6015625 0.99609375 C-1.74304688 0.66738281 -0.88453125 0.33867187 0 0 Z " fill="#919292" transform="translate(421,477)"/>
<path d="M0 0 C-0.33 0.99 -0.66 1.98 -1 3 C-3.77109307 3.05392397 -6.54113818 3.09363455 -9.3125 3.125 C-10.09818359 3.14175781 -10.88386719 3.15851563 -11.69335938 3.17578125 C-12.45068359 3.18222656 -13.20800781 3.18867188 -13.98828125 3.1953125 C-15.03302612 3.21102295 -15.03302612 3.21102295 -16.09887695 3.22705078 C-18 3 -18 3 -21 1 C-17.87504511 0.83248032 -14.75002908 0.66612942 -11.625 0.5 C-10.73554688 0.45230469 -9.84609375 0.40460938 -8.9296875 0.35546875 C-7.65351563 0.28779297 -7.65351563 0.28779297 -6.3515625 0.21875 C-5.56604004 0.17685547 -4.78051758 0.13496094 -3.97119141 0.09179688 C-2.64854076 0.03020205 -1.32408408 0 0 0 Z " fill="#0F0F0E" transform="translate(327,331)"/>
<path d="M0 0 C1.41778293 2.83556587 0.86257622 4.9908706 0.5625 8.125 C0.46066406 9.22070312 0.35882813 10.31640625 0.25390625 11.4453125 C0.17011719 12.28835938 0.08632813 13.13140625 0 14 C-3.14094457 13.24322657 -6.05521673 12.35300853 -9 11 C-9.33 10.34 -9.66 9.68 -10 9 C-7.69 9.33 -5.38 9.66 -3 10 C-2.86722656 9.36191406 -2.73445313 8.72382813 -2.59765625 8.06640625 C-2.42105469 7.24011719 -2.24445313 6.41382813 -2.0625 5.5625 C-1.88847656 4.73878906 -1.71445312 3.91507812 -1.53515625 3.06640625 C-1 1 -1 1 0 0 Z " fill="#C0C0C0" transform="translate(303,302)"/>
<path d="M0 0 C8.5401258 -0.3366181 17.0451073 -0.57970172 25 3 C25.99 4.485 25.99 4.485 27 6 C22 5 22 5 17 4 C17 3.34 17 2.68 17 2 C11.39 1.67 5.78 1.34 0 1 C0 0.67 0 0.34 0 0 Z " fill="#D8C8F6" transform="translate(381,8)"/>
<path d="M0 0 C2.91636038 1.03109813 3.83424658 1.65386786 5.1953125 4.49609375 C5.50210937 5.46675781 5.80890625 6.43742187 6.125 7.4375 C7.19103962 10.74574693 8.05553566 13.08330349 10 16 C9.625 18.1875 9.625 18.1875 9 20 C5.22684019 13.46718285 2.13766171 7.244298 0 0 Z " fill="#B194EF" transform="translate(467,63)"/>
<path d="M0 0 C6.6 0.33 13.2 0.66 20 1 C20 1.66 20 2.32 20 3 C17.79194476 3.0544452 15.58349446 3.09299283 13.375 3.125 C12.14523438 3.14820313 10.91546875 3.17140625 9.6484375 3.1953125 C6.05683959 3.0030428 3.33338825 2.30258556 0 1 C0 0.67 0 0.34 0 0 Z " fill="#0A0A0A" transform="translate(194,327)"/>
<path d="M0 0 C1.4540625 0.0309375 1.4540625 0.0309375 2.9375 0.0625 C1.64726282 2.64297436 0.66660609 2.73272964 -2 3.6875 C-3.06541016 4.07808594 -3.06541016 4.07808594 -4.15234375 4.4765625 C-6.0625 5.0625 -6.0625 5.0625 -8.0625 5.0625 C-8.0625 5.7225 -8.0625 6.3825 -8.0625 7.0625 C-9.7125 7.3925 -11.3625 7.7225 -13.0625 8.0625 C-13.0625 7.4025 -13.0625 6.7425 -13.0625 6.0625 C-10.30415575 3.61063844 -7.48798265 2.35862857 -4.0625 1.0625 C-3.0625 0.0625 -3.0625 0.0625 0 0 Z " fill="#6E6E6E" transform="translate(186.0625,257.9375)"/>
<path d="M0 0 C2.62451617 2.62451617 2.5832868 4.4877828 3.125 8.125 C3.29257812 9.22070312 3.46015625 10.31640625 3.6328125 11.4453125 C3.75398438 12.28835938 3.87515625 13.13140625 4 14 C3.01 14.66 2.02 15.32 1 16 C-1.48063781 5.62642369 -1.48063781 5.62642369 0 0 Z " fill="#525152" transform="translate(19,397)"/>
<path d="M0 0 C0.33 0 0.66 0 1 0 C0.67 2.97 0.34 5.94 0 9 C-0.66 9 -1.32 9 -2 9 C-2.33 10.98 -2.66 12.96 -3 15 C-3.33 15 -3.66 15 -4 15 C-4 12.03 -4 9.06 -4 6 C-3.01 5.67 -2.02 5.34 -1 5 C-0.67 3.35 -0.34 1.7 0 0 Z " fill="#4C329C" transform="translate(111,131)"/>
<path d="M0 0 C2.91952568 0.01748219 5.72297885 0.13944633 8.625 0.375 C9.42679687 0.43171875 10.22859375 0.4884375 11.0546875 0.546875 C13.03715498 0.68847982 15.01869051 0.84302259 17 1 C17 1.33 17 1.66 17 2 C8.585 2.495 8.585 2.495 0 3 C0 3.66 0 4.32 0 5 C-1.65 5.33 -3.3 5.66 -5 6 C-3.4198632 3.84526801 -1.89353366 1.89353366 0 0 Z " fill="#414142" transform="translate(308,274)"/>
<path d="M0 0 C2.31 0.33 4.62 0.66 7 1 C7.33 1.99 7.66 2.98 8 4 C7.01 4.33 6.02 4.66 5 5 C5.99 5.66 6.98 6.32 8 7 C4.04179141 6.43454163 1.3340947 5.19097652 -2 3 C-1.01 2.67 -0.02 2.34 1 2 C0.67 1.34 0.34 0.68 0 0 Z " fill="#89898A" transform="translate(82,480)"/>
<path d="M0 0 C3.7602985 0.58107632 6.53035032 1.65199496 9.8125 3.5625 C10.60269531 4.01753906 11.39289063 4.47257812 12.20703125 4.94140625 C12.79871094 5.29074219 13.39039062 5.64007813 14 6 C10.71023192 7.09658936 9.28696233 6.79953138 6 6 C6 5.34 6 4.68 6 4 C4.35 3.67 2.7 3.34 1 3 C0.67 2.01 0.34 1.02 0 0 Z " fill="#393839" transform="translate(71,476)"/>
<path d="M0 0 C0.66 0.33 1.32 0.66 2 1 C0.68 3.64 -0.64 6.28 -2 9 C-2.66 9 -3.32 9 -4 9 C-4 10.65 -4 12.3 -4 14 C-4.66 14 -5.32 14 -6 14 C-5.51171875 7.9453125 -5.51171875 7.9453125 -5 6 C-4.01 5.34 -3.02 4.68 -2 4 C-0.80767387 1.94996045 -0.80767387 1.94996045 0 0 Z " fill="#30215B" transform="translate(118,117)"/>
<path d="M0 0 C0.66 0 1.32 0 2 0 C3.14077657 3.42232972 3.09815117 6.08673217 3.0625 9.6875 C3.05347656 10.86699219 3.04445313 12.04648437 3.03515625 13.26171875 C3.02355469 14.16535156 3.01195312 15.06898438 3 16 C2.67 16 2.34 16 2 16 C0.40837921 10.42932723 -0.20674944 5.78898419 0 0 Z " fill="#302F2F" transform="translate(16,387)"/>
<path d="M0 0 C0.33 0 0.66 0 1 0 C1.33 4.62 1.66 9.24 2 14 C1.01 14.33 0.02 14.66 -1 15 C-1.02693575 12.87506859 -1.04636628 10.75004088 -1.0625 8.625 C-1.07410156 7.44164062 -1.08570313 6.25828125 -1.09765625 5.0390625 C-1 2 -1 2 0 0 Z " fill="#101010" transform="translate(274,294)"/>
<path d="M0 0 C2.64 0 5.28 0 8 0 C8 0.66 8 1.32 8 2 C4.3638748 3.26841577 0.82327191 4.46899001 -3 5 C-3.66 4.67 -4.32 4.34 -5 4 C-3.35 3.34 -1.7 2.68 0 2 C0 1.34 0 0.68 0 0 Z " fill="#A8A7A8" transform="translate(389,130)"/>
<path d="M0 0 C1.74216797 0.15275391 1.74216797 0.15275391 3.51953125 0.30859375 C4.39996094 0.39238281 5.28039062 0.47617187 6.1875 0.5625 C6.1875 0.8925 6.1875 1.2225 6.1875 1.5625 C-0.06557239 2.39538874 -5.58067361 2.60113773 -11.8125 1.5625 C-11.8125 1.2325 -11.8125 0.9025 -11.8125 0.5625 C-7.71524731 -0.47917441 -4.19754776 -0.38159525 0 0 Z " fill="#545353" transform="translate(388.8125,490.4375)"/>
<path d="M0 0 C1.45922693 0.11409593 2.91740598 0.24165544 4.375 0.375 C5.59316406 0.47941406 5.59316406 0.47941406 6.8359375 0.5859375 C9 1 9 1 11 3 C10.01 3.495 10.01 3.495 9 4 C9.99 4.66 10.98 5.32 12 6 C7.24518354 5.42365861 4.02951788 3.44931479 0 1 C0 0.67 0 0.34 0 0 Z " fill="#595859" transform="translate(86,484)"/>
<path d="M0 0 C0.99 0.495 0.99 0.495 2 1 C2.4140625 3.94140625 2.4140625 3.94140625 2.625 7.5625 C2.69976562 8.76003906 2.77453125 9.95757812 2.8515625 11.19140625 C2.90054688 12.11824219 2.94953125 13.04507812 3 14 C2.01 14 1.02 14 0 14 C0 9.38 0 4.76 0 0 Z " fill="#858484" transform="translate(224,297)"/>
<path d="M0 0 C0.66 0.33 1.32 0.66 2 1 C-1.61328125 5.6875 -1.61328125 5.6875 -3 7 C-3.99 7 -4.98 7 -6 7 C-6 7.99 -6 8.98 -6 10 C-7.32 10.33 -8.64 10.66 -10 11 C-8.7260411 8.96166576 -7.38938077 6.96147874 -6 5 C-5.34 5 -4.68 5 -4 5 C-4 4.34 -4 3.68 -4 3 C-2 1.375 -2 1.375 0 0 Z " fill="#311F5D" transform="translate(375,117)"/>
<path d="M0 0 C0.33 0.99 0.66 1.98 1 3 C0.319375 3.5878125 0.319375 3.5878125 -0.375 4.1875 C-2.27642919 6.30832487 -3.06204028 8.33042235 -4 11 C-4.66 10.67 -5.32 10.34 -6 10 C-6 8.35 -6 6.7 -6 5 C-5.34 5 -4.68 5 -4 5 C-4 4.34 -4 3.68 -4 3 C-2 1.375 -2 1.375 0 0 Z " fill="#7752D4" transform="translate(456,449)"/>
<path d="M0 0 C0.33 0.99 0.66 1.98 1 3 C-1.3125 5.5 -1.3125 5.5 -4 8 C-4.99 8 -5.98 8 -7 8 C-7 8.66 -7 9.32 -7 10 C-7.66 9.67 -8.32 9.34 -9 9 C-8.67 8.34 -8.34 7.68 -8 7 C-7.34 7 -6.68 7 -6 7 C-5.67 6.01 -5.34 5.02 -5 4 C-4.34 4 -3.68 4 -3 4 C-3 3.34 -3 2.68 -3 2 C-2.01 1.34 -1.02 0.68 0 0 Z " fill="#9976EA" transform="translate(54,36)"/>
<path d="M0 0 C0.33 0 0.66 0 1 0 C1.06058594 0.71027344 1.12117188 1.42054688 1.18359375 2.15234375 C1.26738281 3.07144531 1.35117187 3.99054688 1.4375 4.9375 C1.51871094 5.85402344 1.59992188 6.77054687 1.68359375 7.71484375 C1.76044976 9.96159732 1.76044976 9.96159732 3 11 C3.14115161 13.67058851 3.04247107 16.32432238 3 19 C2.67 19 2.34 19 2 19 C0.27706865 14.53665816 -0.22240791 10.89798769 -0.125 6.125 C-0.10695313 4.97257812 -0.08890625 3.82015625 -0.0703125 2.6328125 C-0.04710937 1.76398438 -0.02390625 0.89515625 0 0 Z " fill="#BFC0BF" transform="translate(412,407)"/>
<path d="M0 0 C1 2 1 2 0.4375 4.375 C-1.41741462 7.76223539 -3.71164126 9.06987639 -7 11 C-5.22054913 6.95579349 -2.60470327 3.53921513 0 0 Z " fill="#30215B" transform="translate(351,145)"/>
<path d="M0 0 C0.66 0.33 1.32 0.66 2 1 C2.625 3.5625 2.625 3.5625 3 6 C2.01 6.66 1.02 7.32 0 8 C-1.5625 5.625 -1.5625 5.625 -3 3 C-2.67 2.34 -2.34 1.68 -2 1 C-1.67 1.33 -1.34 1.66 -1 2 C-0.67 1.34 -0.34 0.68 0 0 Z " fill="#7B797A" transform="translate(27,423)"/>
<path d="M0 0 C0.66 0.33 1.32 0.66 2 1 C-1.85477249 3.56984833 -5.52040582 4.85814266 -10 6 C-8.875 3.5 -8.875 3.5 -7 1 C-3.875 0.75 -3.875 0.75 -1 1 C-0.67 0.67 -0.34 0.34 0 0 Z " fill="#515050" transform="translate(82,329)"/>
<path d="M0 0 C0.33 0.66 0.66 1.32 1 2 C1.66 2 2.32 2 3 2 C3 6.29 3 10.58 3 15 C3.66 15.33 4.32 15.66 5 16 C4.01 16 3.02 16 2 16 C1.93941406 15.34773438 1.87882812 14.69546875 1.81640625 14.0234375 C1.36480009 9.31283783 0.85804961 4.65798362 0 0 Z " fill="#6D6C6D" transform="translate(327,300)"/>
<path d="M0 0 C0.33 0 0.66 0 1 0 C1.02703381 1.93742341 1.04641125 3.87495479 1.0625 5.8125 C1.07410156 6.89144531 1.08570312 7.97039062 1.09765625 9.08203125 C1 12 1 12 0 15 C-0.66 15 -1.32 15 -2 15 C-1.38487182 9.99109914 -0.7282448 4.99367864 0 0 Z " fill="#301F5B" transform="translate(97,234)"/>
<path d="M0 0 C0.66 0 1.32 0 2 0 C2 0.66 2 1.32 2 2 C0.390625 3.32421875 0.390625 3.32421875 -1.75 4.6875 C-2.44609375 5.14511719 -3.1421875 5.60273438 -3.859375 6.07421875 C-6.39090725 7.16906025 -7.46100862 6.9435441 -10 6 C-9.36191406 5.65066406 -8.72382813 5.30132812 -8.06640625 4.94140625 C-7.24011719 4.48636719 -6.41382813 4.03132813 -5.5625 3.5625 C-4.73878906 3.11003906 -3.91507812 2.65757812 -3.06640625 2.19140625 C-1.07691202 1.16337603 -1.07691202 1.16337603 0 0 Z " fill="#30302F" transform="translate(430,473)"/>
<path d="M0 0 C0.33 0 0.66 0 1 0 C1.33 2.31 1.66 4.62 2 7 C1.01 7.33 0.02 7.66 -1 8 C-2.20882096 10.00016466 -2.20882096 10.00016466 -3 12 C-2.40075776 7.80530429 -1.42500059 3.99000166 0 0 Z " fill="#BCBBBB" transform="translate(104,295)"/>
<path d="M0 0 C-1.26418246 0.69965443 -2.53665402 1.38434763 -3.8125 2.0625 C-4.52019531 2.44535156 -5.22789062 2.82820313 -5.95703125 3.22265625 C-8 4 -8 4 -11 3 C-7.70039114 0.18922208 -4.22288017 -2.11144009 0 0 Z " fill="#302F2F" transform="translate(419,482)"/>
<path d="M0 0 C0.99 0.495 0.99 0.495 2 1 C2 2.65 2 4.3 2 6 C3.32 5.67 4.64 5.34 6 5 C4.6875 6.5 4.6875 6.5 3 8 C2.01 8 1.02 8 0 8 C0 5.36 0 2.72 0 0 Z " fill="#C2C2C3" transform="translate(330,307)"/>
<path d="M0 0 C0.33 0 0.66 0 1 0 C1 3.63 1 7.26 1 11 C0.01 11.33 -0.98 11.66 -2 12 C-2.26252625 7.66831683 -1.29243536 4.1196377 0 0 Z " fill="#10100F" transform="translate(125,139)"/>
<path d="M0 0 C2.88437779 1.29299694 4.87219421 2.65941363 7 5 C4.6875 5.6875 4.6875 5.6875 2 6 C0.1875 4.5625 0.1875 4.5625 -1 3 C-0.01 3 0.98 3 2 3 C1.34 2.01 0.68 1.02 0 0 Z " fill="#797979" transform="translate(67,471)"/>
<path d="M0 0 C2.33333823 2.12121657 3.9148886 4.01594365 5 7 C4.625 9.25 4.625 9.25 4 11 C3.67 9.68 3.34 8.36 3 7 C2.34 7 1.68 7 1 7 C0.67 4.69 0.34 2.38 0 0 Z " fill="#656465" transform="translate(245,277)"/>
<path d="M0 0 C0.66 0 1.32 0 2 0 C2 0.99 2 1.98 2 3 C-0.31 4.32 -2.62 5.64 -5 7 C-5 6.01 -5 5.02 -5 4 C-4.01 3.67 -3.02 3.34 -2 3 C-1.34 2.01 -0.68 1.02 0 0 Z " fill="#515152" transform="translate(291,267)"/>
<path d="M0 0 C0.33 1.32 0.66 2.64 1 4 C1.66 4 2.32 4 3 4 C2.67 5.32 2.34 6.64 2 8 C1.01 8 0.02 8 -1 8 C-0.67 5.36 -0.34 2.72 0 0 Z " fill="#E5E5E5" transform="translate(117,235)"/>
<path d="M0 0 C3.3 0.33 6.6 0.66 10 1 C7 3 7 3 3.875 2.75 C2.92625 2.5025 1.9775 2.255 1 2 C0.67 1.34 0.34 0.68 0 0 Z " fill="#3B3A3B" transform="translate(94,487)"/>
<path d="M0 0 C0.33 0.99 0.66 1.98 1 3 C-0.98 4.32 -2.96 5.64 -5 7 C-5.66 6.67 -6.32 6.34 -7 6 C-5.68 5.34 -4.36 4.68 -3 4 C-3 3.34 -3 2.68 -3 2 C-2.01 1.34 -1.02 0.68 0 0 Z " fill="#ACABB0" transform="translate(449,460)"/>
<path d="M0 0 C1.125 3.75 1.125 3.75 0 6 C-0.66 6 -1.32 6 -2 6 C-2 6.66 -2 7.32 -2 8 C-2.66 8 -3.32 8 -4 8 C-2.87548273 5.0280615 -1.77706209 2.66559313 0 0 Z " fill="#CCB9F3" transform="translate(468,435)"/>
<path d="M0 0 C-0.99 0.33 -1.98 0.66 -3 1 C-3 1.66 -3 2.32 -3 3 C-4.65 3.33 -6.3 3.66 -8 4 C-7.67 2.68 -7.34 1.36 -7 0 C-2.25 -1.125 -2.25 -1.125 0 0 Z " fill="#646464" transform="translate(346,182)"/>
<path d="M0 0 C3.65316671 1.24976756 4.78065836 1.67098753 7 5 C4.03 4.505 4.03 4.505 1 4 C0.67 2.68 0.34 1.36 0 0 Z " fill="#3C3C3C" transform="translate(63,470)"/>
<path d="M0 0 C1.875 0.25 1.875 0.25 4 1 C5.25 3.0625 5.25 3.0625 6 5 C5.34 5 4.68 5 4 5 C3.67 4.67 3.34 4.34 3 4 C2.67 4.66 2.34 5.32 2 6 C1.34 4.02 0.68 2.04 0 0 Z " fill="#626262" transform="translate(37,444)"/>
<path d="M0 0 C1 2 1 2 0.1875 5.0625 C-1 8 -1 8 -3 9 C-2.25 2.25 -2.25 2.25 0 0 Z " fill="#261A45" transform="translate(82,302)"/>
</svg>
